<svg xmlns="http://www.w3.org/2000/svg" viewBox="0 0 286.64 174.02"><defs><style>.cls-1{fill:#231f20;}.cls-1,.cls-2,.cls-3,.cls-4,.cls-5{fill-rule:evenodd;}.cls-2{fill:#f1f2f2;}.cls-3{fill:#c5262d;}.cls-5{fill:#dfdfdb;}</style></defs><title>kens logo</title><g id="print"><polygon class="cls-1" points="280.86 58.88 280.86 130.89 280.86 130.89 279.66 130.97 278.5 131.09 277.31 131.25 276.15 131.45 274.99 131.69 273.84 131.93 272.68 132.21 271.56 132.53 270.44 132.89 269.33 133.25 268.25 133.69 267.21 134.13 266.14 134.6 265.14 135.08 264.1 135.6 263.14 136.2 262.19 136.76 261.27 137.4 260.35 138.03 259.51 138.71 258.68 139.43 257.88 140.15 257.12 140.91 256.36 141.71 255.68 142.5 255.05 143.34 254.45 144.22 253.89 145.14 253.89 145.14 252.61 145.14 251.34 145.22 250.06 145.26 248.82 145.34 247.55 145.41 246.31 145.53 245.11 145.62 243.88 145.74 242.68 145.89 241.48 146.01 240.28 146.17 239.09 146.37 237.93 146.53 236.73 146.73 235.58 146.93 234.42 147.13 233.26 147.37 232.15 147.57 230.99 147.81 229.87 148.05 228.75 148.29 227.64 148.57 226.52 148.85 225.4 149.09 224.33 149.37 223.21 149.68 222.13 149.96 221.06 150.24 219.94 150.56 218.86 150.88 217.82 151.2 216.75 151.52 215.67 151.84 214.63 152.16 213.56 152.48 212.52 152.8 211.44 153.16 210.4 153.47 209.37 153.83 208.33 154.15 207.25 154.51 206.22 154.87 205.18 155.19 204.14 155.55 203.14 155.91 202.11 156.23 202.11 156.23 201.87 156.31 201.51 156.43 201.27 156.51 201.27 156.51 200.27 156.87 199.23 157.22 198.24 157.54 197.2 157.9 196.2 158.22 195.16 158.54 194.13 158.9 193.13 159.22 192.09 159.58 191.06 159.9 190.06 160.22 189.02 160.54 187.98 160.85 186.95 161.17 185.91 161.49 184.87 161.77 183.83 162.09 182.8 162.41 181.72 162.69 180.68 162.97 179.6 163.25 178.57 163.53 177.49 163.81 176.41 164.09 175.34 164.33 174.26 164.6 173.14 164.84 172.06 165.08 170.95 165.32 169.83 165.56 168.71 165.76 167.6 166 166.48 166.2 165.32 166.4 164.21 166.56 163.05 166.76 161.85 166.92 160.69 167.08 159.5 167.24 158.34 167.36 157.15 167.52 155.91 167.64 154.71 167.76 153.47 167.84 152.24 167.92 151 168 149.72 168.08 148.45 168.12 147.17 168.16 145.89 168.19 144.58 168.24 143.26 168.24 143.26 168.24 141.94 168.24 140.67 168.19 139.35 168.16 138.07 168.12 136.8 168.08 135.56 168 134.32 167.92 133.09 167.84 131.85 167.76 130.62 167.64 129.42 167.52 128.22 167.36 127.02 167.24 125.87 167.08 124.71 166.92 123.51 166.76 122.4 166.56 121.24 166.4 120.08 166.2 118.97 166 117.85 165.76 116.73 165.56 115.61 165.32 114.54 165.08 113.42 164.84 112.34 164.6 111.27 164.33 110.19 164.09 109.11 163.81 108.03 163.53 106.96 163.25 105.92 162.97 104.84 162.69 103.81 162.41 102.77 162.09 101.73 161.77 100.69 161.49 99.66 161.17 98.62 160.85 97.58 160.54 96.55 160.22 95.55 159.9 94.51 159.58 93.47 159.22 92.48 158.9 91.44 158.58 90.44 158.22 89.4 157.9 88.41 157.54 87.37 157.22 86.37 156.87 85.37 156.55 85.37 156.55 85.14 156.47 84.82 156.35 84.58 156.27 84.58 156.27 83.54 155.91 82.5 155.59 81.47 155.23 80.43 154.87 79.39 154.55 78.35 154.19 77.32 153.83 76.28 153.51 75.2 153.16 74.16 152.84 73.13 152.52 72.05 152.16 71.01 151.84 69.94 151.52 68.86 151.2 67.78 150.88 66.7 150.56 65.63 150.28 64.55 149.96 63.43 149.68 62.35 149.41 61.24 149.13 60.16 148.85 59.04 148.57 57.93 148.33 56.77 148.05 55.65 147.81 54.54 147.57 53.38 147.37 52.22 147.13 51.06 146.93 49.91 146.73 48.71 146.53 47.55 146.37 46.36 146.21 45.16 146.05 43.96 145.89 42.77 145.74 41.53 145.62 40.29 145.53 39.06 145.41 37.82 145.34 36.54 145.26 35.31 145.22 34.03 145.14 32.75 145.14 32.75 145.14 32.16 144.22 31.56 143.34 30.92 142.5 30.24 141.71 29.52 140.91 28.72 140.15 27.93 139.43 27.09 138.71 26.25 138.03 25.33 137.4 24.41 136.76 23.46 136.2 22.5 135.6 21.5 135.08 20.47 134.6 19.43 134.13 18.35 133.69 17.27 133.25 16.16 132.89 15.04 132.53 13.92 132.21 12.77 131.93 11.61 131.69 10.45 131.45 9.29 131.25 8.14 131.09 6.94 130.97 5.79 130.89 5.79 130.89 5.79 58.88 60.4 58.88 60.4 46.64 60.4 46.64 60.56 46.56 60.84 46.48 61.08 46.4 61.08 46.4 62.12 45.96 63.15 45.48 64.15 44.88 65.15 44.24 66.11 43.52 67.02 42.73 67.86 41.85 68.66 40.93 69.38 39.93 70.02 38.86 70.57 37.7 70.57 37.7 89.8 37.7 91.48 34.87 91.48 34.87 92.36 33.63 93.35 32.55 94.51 31.6 95.83 30.88 97.26 30.32 97.26 30.32 99.7 29.6 100.77 27.29 100.77 27.29 101.21 26.41 101.69 25.53 102.21 24.7 102.73 23.86 103.29 23.02 103.89 22.22 104.52 21.46 105.16 20.66 105.8 19.95 106.52 19.19 107.24 18.47 107.95 17.79 108.71 17.11 109.51 16.44 110.31 15.8 111.15 15.2 111.98 14.6 112.86 14 113.78 13.45 114.7 12.89 115.61 12.37 116.57 11.85 117.53 11.37 118.49 10.89 119.52 10.45 120.52 10.01 121.56 9.62 122.6 9.21 123.67 8.86 124.75 8.5 125.83 8.18 126.9 7.9 128.02 7.58 129.14 7.34 130.3 7.06 131.41 6.86 132.57 6.66 133.77 6.46 134.92 6.3 136.12 6.14 137.28 6.06 138.47 5.94 139.67 5.86 140.91 5.83 142.1 5.78 143.3 5.78 143.3 5.78 144.54 5.78 145.74 5.83 146.93 5.86 148.13 5.94 149.32 6.06 150.52 6.18 151.68 6.3 152.88 6.46 154.03 6.66 155.15 6.86 156.31 7.1 157.42 7.34 158.54 7.62 159.66 7.9 160.78 8.22 161.85 8.54 162.93 8.9 163.97 9.26 165 9.65 166.04 10.05 167.04 10.49 168.04 10.93 169.03 11.41 169.99 11.89 170.95 12.41 171.87 12.93 172.78 13.48 173.66 14.04 174.54 14.6 175.38 15.24 176.21 15.84 177.01 16.48 177.81 17.16 178.57 17.83 179.33 18.51 180.04 19.23 180.72 19.95 181.4 20.7 182.04 21.46 182.68 22.26 183.28 23.06 183.83 23.86 184.39 24.7 184.87 25.57 185.39 26.41 185.83 27.33 185.83 27.33 186.95 29.6 189.38 30.32 189.38 30.32 190.78 30.88 192.09 31.6 193.25 32.51 194.29 33.59 195.12 34.83 195.12 34.83 196.76 37.7 215.99 37.7 215.99 37.7 216.55 38.82 217.19 39.89 217.9 40.89 218.66 41.81 219.5 42.65 220.38 43.45 221.34 44.16 222.29 44.8 223.29 45.4 224.33 45.88 225.36 46.32 225.36 46.32 225.64 46.44 226 46.56 226.2 46.64 226.2 46.64 226.2 58.88 280.86 58.88 280.86 58.88 280.86 58.88"/><polygon class="cls-2" points="282.77 132.73 281.58 132.81 280.38 132.85 279.18 132.97 277.99 133.13 276.79 133.29 275.63 133.53 274.44 133.77 273.28 134.05 272.16 134.37 271.04 134.72 269.93 135.12 268.85 135.52 267.77 135.96 266.74 136.44 265.74 136.96 264.74 137.48 263.78 138.07 262.87 138.67 261.95 139.27 261.07 139.95 260.23 140.63 259.43 141.35 258.68 142.06 257.96 142.82 257.28 143.62 256.64 144.42 256.08 145.3 255.53 146.13 255.05 147.05 255.05 147.05 253.73 147.05 252.49 147.09 251.22 147.13 249.98 147.21 248.7 147.29 247.47 147.37 246.27 147.45 245.03 147.57 243.84 147.69 242.64 147.85 241.44 147.97 240.25 148.13 239.09 148.33 237.93 148.49 236.77 148.69 235.62 148.89 234.46 149.09 233.3 149.32 232.19 149.53 231.07 149.76 229.91 150 228.79 150.28 227.72 150.52 226.6 150.8 225.48 151.08 224.41 151.36 223.29 151.64 222.21 151.92 221.13 152.24 220.06 152.56 218.98 152.84 217.9 153.16 216.87 153.47 215.79 153.79 214.71 154.15 213.68 154.47 212.6 154.79 211.56 155.15 210.52 155.47 209.45 155.83 208.41 156.15 207.37 156.51 206.34 156.87 205.3 157.22 204.26 157.54 203.18 157.9 202.15 158.26 202.15 158.26 201.15 158.58 200.15 158.94 199.15 159.26 198.16 159.62 197.12 159.94 196.12 160.26 195.12 160.62 194.09 160.94 193.09 161.25 192.09 161.57 191.06 161.89 190.06 162.25 189.02 162.57 187.98 162.85 186.95 163.17 185.95 163.49 184.91 163.81 183.83 164.09 182.8 164.41 181.76 164.69 180.72 164.96 179.65 165.24 178.61 165.52 177.53 165.8 176.45 166.04 175.38 166.32 174.3 166.56 173.18 166.8 172.1 167.04 170.99 167.28 169.87 167.52 168.75 167.72 167.64 167.96 166.52 168.16 165.36 168.35 164.21 168.51 163.05 168.71 161.89 168.87 160.74 169.03 159.54 169.19 158.34 169.31 157.15 169.43 155.95 169.55 154.71 169.67 153.47 169.79 152.24 169.87 151 169.95 149.72 169.99 148.49 170.07 147.17 170.11 145.89 170.15 144.58 170.15 143.26 170.15 143.26 170.15 141.94 170.15 140.67 170.15 139.35 170.11 138.07 170.07 136.8 169.99 135.56 169.95 134.28 169.87 133.05 169.79 131.81 169.67 130.62 169.55 129.38 169.43 128.18 169.31 127.02 169.19 125.83 169.03 124.67 168.87 123.47 168.71 122.32 168.51 121.2 168.35 120.04 168.16 118.93 167.96 117.81 167.72 116.69 167.52 115.57 167.28 114.46 167.04 113.38 166.8 112.26 166.56 111.19 166.32 110.11 166.04 109.03 165.8 108 165.52 106.92 165.24 105.84 164.96 104.8 164.69 103.77 164.41 102.73 164.09 101.69 163.81 100.65 163.49 99.62 163.17 98.58 162.85 97.54 162.57 96.55 162.25 95.51 161.89 94.51 161.57 93.47 161.25 92.48 160.94 91.48 160.62 90.48 160.26 89.44 159.94 88.45 159.62 87.45 159.26 86.45 158.94 85.45 158.58 84.42 158.26 84.42 158.26 83.38 157.9 82.34 157.54 81.31 157.22 80.27 156.87 79.23 156.51 78.19 156.15 77.12 155.83 76.08 155.47 75.04 155.15 74 154.79 72.93 154.47 71.89 154.15 70.81 153.79 69.74 153.47 68.7 153.16 67.62 152.84 66.54 152.56 65.47 152.24 64.39 151.92 63.31 151.64 62.2 151.36 61.12 151.08 60 150.8 58.92 150.52 57.81 150.28 56.69 150 55.57 149.76 54.46 149.53 53.3 149.32 52.18 149.09 51.02 148.89 49.87 148.69 48.71 148.49 47.55 148.33 46.36 148.13 45.16 147.97 44 147.85 42.77 147.69 41.57 147.57 40.37 147.45 39.14 147.37 37.9 147.29 36.66 147.21 35.43 147.13 34.15 147.09 32.87 147.05 31.6 147.05 31.6 147.05 31.08 146.13 30.56 145.3 29.96 144.42 29.32 143.62 28.64 142.82 27.93 142.06 27.17 141.35 26.37 140.63 25.53 139.95 24.66 139.27 23.78 138.67 22.82 138.07 21.86 137.48 20.86 136.96 19.87 136.44 18.83 135.96 17.75 135.52 16.68 135.12 15.56 134.72 14.44 134.37 13.32 134.05 12.17 133.77 11.01 133.53 9.81 133.29 8.62 133.13 7.46 132.97 6.22 132.85 5.03 132.81 3.83 132.73 3.83 132.73 3.83 56.97 58.45 56.97 58.45 45.2 58.45 45.2 59 45.08 59.52 44.92 60 44.76 60 44.76 61.08 44.32 62.16 43.84 63.19 43.24 64.19 42.61 65.15 41.85 66.03 41.01 66.86 40.13 67.62 39.18 68.26 38.1 68.82 36.98 69.26 35.78 69.26 35.78 88.69 35.78 89.84 33.87 89.84 33.87 90.52 32.83 91.32 31.84 92.24 30.96 93.23 30.16 94.31 29.48 95.47 28.92 96.7 28.48 96.7 28.48 98.3 28.01 99.06 26.49 99.06 26.49 99.5 25.57 99.98 24.7 100.49 23.82 101.05 22.94 101.61 22.1 102.21 21.3 102.81 20.51 103.45 19.71 104.13 18.95 104.8 18.19 105.52 17.47 106.28 16.76 107.04 16.08 107.8 15.4 108.59 14.72 109.43 14.08 110.27 13.48 111.15 12.89 112.02 12.29 112.9 11.73 113.82 11.17 114.78 10.65 115.73 10.17 116.69 9.65 117.65 9.21 118.65 8.74 119.68 8.34 120.72 7.9 121.76 7.54 122.8 7.14 123.87 6.78 124.95 6.46 126.03 6.14 127.1 5.86 128.22 5.58 129.34 5.35 130.5 5.11 131.61 4.87 132.77 4.71 133.93 4.51 135.08 4.35 136.24 4.23 137.4 4.11 138.59 4.03 139.75 3.95 140.95 3.91 142.14 3.87 143.34 3.87 143.34 3.87 144.5 3.87 145.69 3.91 146.89 3.95 148.05 4.03 149.25 4.11 150.4 4.23 151.56 4.35 152.72 4.51 153.87 4.71 155.03 4.87 156.15 5.11 157.26 5.35 158.38 5.58 159.5 5.86 160.62 6.14 161.69 6.46 162.77 6.78 163.85 7.14 164.88 7.54 165.92 7.9 166.96 8.34 167.96 8.74 168.95 9.21 169.95 9.65 170.91 10.17 171.87 10.65 172.78 11.17 173.7 11.73 174.58 12.29 175.5 12.89 176.33 13.48 177.17 14.08 178.01 14.72 178.81 15.4 179.56 16.08 180.32 16.76 181.08 17.47 181.8 18.19 182.48 18.95 183.16 19.71 183.79 20.51 184.43 21.3 184.99 22.1 185.59 22.94 186.11 23.82 186.63 24.7 187.1 25.57 187.58 26.49 187.58 26.49 188.3 28.01 189.94 28.48 189.94 28.48 191.13 28.92 192.29 29.48 193.37 30.16 194.37 30.96 195.28 31.84 196.08 32.83 196.8 33.87 196.8 33.87 197.92 35.78 217.34 35.78 217.34 35.78 217.78 36.98 218.34 38.1 219.02 39.18 219.74 40.13 220.58 41.01 221.5 41.85 222.45 42.61 223.45 43.24 224.49 43.84 225.52 44.32 226.6 44.76 226.6 44.76 227.12 44.92 227.6 45.08 228.12 45.2 228.12 45.2 228.12 56.97 282.77 56.97 282.77 132.73 282.77 132.73 282.77 132.73"/><path class="cls-3" d="M428.45,763.67l-1.2.08-1.19,0-1.2.12-1.2.16-1.19.16-1.16.24-1.2.24L419,765l-1.12.32-1.12.36-1.12.39-1.07.4-1.08.44-1,.48-1,.52-1,.52-1,.6-.92.59-.91.6-.88.68-.84.68-.8.72-.76.72-.71.75-.68.8-.64.8-.56.88-.56.84-.48.91h-1.31l-1.24,0-1.28,0-1.23.08-1.28.08-1.24.08-1.19.08-1.24.12-1.2.12-1.19.16-1.2.12-1.2.16-1.15.2-1.16.16-1.16.2-1.15.2-1.16.2-1.16.24-1.12.2-1.11.24-1.16.23-1.12.28-1.07.24-1.12.28-1.12.28-1.07.28-1.12.28-1.08.28-1.08.32-1.07.32-1.08.28-1.08.32-1,.32-1.08.32-1.08.35-1,.32-1.07.32-1,.36-1,.32-1.08.36-1,.32-1,.36-1,.36-1,.36-1,.31-1.08.36-1,.36h0l-1,.32-1,.36-1,.32-1,.36-1,.32-1,.32-1,.36-1,.32-1,.32-1,.31-1,.32-1,.36-1,.32-1,.28-1,.32-1,.32-1,.32-1.08.28-1,.32-1,.28-1,.28-1.08.27-1,.28-1.08.28-1.08.24-1.08.28-1.07.24-1.12.24-1.08.24-1.11.24-1.12.24-1.12.2-1.11.24-1.12.2-1.16.2-1.16.16-1.15.2-1.16.15-1.16.16-1.19.16-1.2.12-1.2.12-1.19.12-1.24.12-1.24.12-1.23.08-1.24.08-1.28,0-1.23.08-1.32,0-1.28,0h-5.22l-1.32,0-1.28,0-1.27-.08-1.24,0-1.28-.08-1.23-.08-1.24-.12-1.2-.12-1.23-.12-1.2-.12-1.16-.12-1.19-.16-1.16-.16-1.2-.15-1.15-.2-1.12-.16-1.16-.2-1.12-.2-1.11-.24-1.12-.2-1.12-.24-1.11-.24-1.08-.24-1.12-.24-1.08-.24-1.07-.28-1.08-.24-1-.28-1.07-.28-1.08-.27-1-.28-1-.28-1-.32-1-.28-1-.32-1-.32-1-.32-1-.28-1-.32-1-.36-1-.32-1-.31-1-.32-1-.32-1-.36-1-.32-1-.32-1-.36-1-.32-1-.36-1-.32h0l-1-.36-1-.36-1-.31-1-.36-1-.36-1-.36-1.08-.32-1-.36-1-.32-1-.36-1.07-.32-1-.32-1.08-.35-1.08-.32-1-.32-1.08-.32-1.08-.28-1.07-.32-1.08-.32-1.08-.28-1.12-.28L206.8,782l-1.12-.28-1.08-.28-1.11-.24-1.12-.28-1.12-.23-1.12-.24-1.15-.2-1.12-.24-1.16-.2-1.15-.2-1.16-.2-1.16-.16-1.19-.2-1.2-.16-1.16-.12-1.23-.16-1.2-.12-1.2-.12-1.23-.08-1.24-.08-1.24-.08-1.24-.08-1.27,0-1.28,0h-1.27l-.52-.91-.52-.84-.6-.88-.64-.8-.68-.8-.72-.75-.75-.72-.8-.72-.84-.68-.88-.68-.87-.6-1-.59-1-.6-1-.52-1-.52-1-.48-1.08-.44-1.08-.4-1.11-.39-1.12-.36L159,765l-1.15-.28-1.16-.24-1.2-.24-1.19-.16-1.16-.16-1.24-.12-1.19,0-1.2-.08h0V687.91h54.61V676.14h0l.56-.12.52-.16.48-.16h0l1.08-.44,1.07-.47,1-.6,1-.64,1-.76.87-.84.84-.87.76-1,.64-1.08.56-1.12.44-1.19h19.42l1.16-1.92h0l.68-1,.8-1,.91-.88,1-.8,1.08-.68,1.16-.55,1.23-.44h0L244,659l.76-1.52h0l.44-.92.47-.87.52-.88.56-.88.56-.84.6-.79.6-.8.63-.8.68-.76.68-.76.72-.71.76-.72.76-.68.75-.68.8-.68.84-.64.84-.59.87-.6.88-.6.88-.56.92-.56.95-.52,1-.48,1-.51,1-.44,1-.48,1-.4,1-.44,1-.36,1-.4,1.08-.36,1.08-.32,1.08-.31,1.07-.28,1.12-.28,1.12-.24,1.15-.24,1.12-.24,1.16-.16,1.15-.2,1.16-.16,1.16-.12,1.16-.12,1.19-.08,1.16-.08,1.2,0,1.19,0h2.36l1.19,0,1.2,0,1.16.08,1.19.08,1.16.12,1.16.12,1.15.16,1.16.2,1.16.16,1.12.24,1.11.24,1.12.24,1.12.28,1.11.28,1.08.31,1.08.32,1.08.36,1,.4,1,.36,1,.44,1,.4,1,.48,1,.44,1,.51,1,.48.92.52.92.56.88.56.91.6.84.6.84.59.84.64.8.68.75.68.76.68.76.72.72.71.68.76.67.76.64.8.64.8.56.79.6.84.52.88.52.88.47.87.48.92h0L334,659l1.64.48h0l1.19.44,1.16.55,1.08.68,1,.8.92.88.8,1,.72,1h0l1.12,1.92H363l.44,1.19L364,669l.68,1.08.72,1,.84.87.91.84,1,.76,1,.64,1,.6,1,.47,1.08.44h0l.52.16.48.16.52.12h0v11.77h54.65v75.76ZM377.67,684V672.79h0l-1.12-.08-1.08-.16-1.12-.24-1.07-.36-1-.44-1-.51-.92-.6-.87-.68-.8-.76-.68-.84-.6-.91-.48-1-.36-1-.19-1.12-.08-1.15h0l-20.51,0h0l-.68-1.08-.8-1-.87-1-1-.88-1-.8-1.12-.72-1.11-.64-1.24-.56-1.24-.39h0l-.4-.84-.43-.8-.44-.8-.48-.76-.48-.75-.48-.76-.52-.72-.56-.72-.52-.72-.59-.67-.56-.68-.6-.64-.64-.68-.6-.64-.68-.6-.63-.63-.68-.6-.68-.56-.72-.56-.72-.56-.71-.56-.76-.51-.72-.52-.8-.52-.76-.48-.79-.48-.8-.44-.8-.48-.84-.4-.84-.44-.83-.39-.84-.4-.88-.36-.84-.4-.87-.32-.88-.36-.92-.32-.88-.32-.91-.28-.92-.32-.92-.24-.92-.27-1-.24-.91-.24-1-.2-1-.2-1-.2-.95-.16-1-.16-1-.16-.95-.16-1-.12-1-.08-1-.12-1-.08-1,0-1-.08-1,0h-1l-1,0h-1l-1,0h-.95l-1,0-1,.08-1,0-1,.08-1,.12-1,.08-1,.12-.95.16-1,.16-1,.16-1,.16-.91.2-1,.2-1,.2-.92.24-.95.24-.92.27-.92.24-.92.32-.91.28-.88.32-.92.32-.88.36-.87.32-.88.4-.84.36-.84.4-.88.39-.79.44-.84.4-.8.48-.8.44-.79.48-.76.48-.8.52-.76.52-.72.51-.71.56-.72.56-.72.56-.68.56-.68.6-.64.63-.67.6-.6.64-.64.68-.6.64-.56.68-.6.67-.51.72-.56.72-.52.72-.48.76-.48.75-.48.76-.44.8-.44.8-.39.84h0l-1.24.39-1.24.56-1.15.64-1.08.72-1,.8-1,.88-.87,1-.8,1-.72,1.12h0l-20.47,0h0l-.08,1.19-.24,1.12-.31,1-.48,1-.6.91-.72.84-.76.76-.88.68-.91.6-1,.51-1,.44-1,.36-1.12.24-1.12.16-1.08.08h0V684H145.68V767.5h3.11l1.32,0,1.27,0,1.28.12,1.28.16,1.23.2,1.2.24,1.24.28,1.15.32,1.16.36,1.16.39,1.07.4,1.08.48,1.08.48,1,.56.95.56,1,.6.88.6.84.63.83.68.76.72.72.72.64.76.64.79.56.8.47.8.48.84.4.87.32.88h0l1.12,0H177l1.11,0,1.12,0,1.12,0,1.11,0,1.08,0,1.08.08,1.08.08,1.07.12,1.08.08,1.08.12,1,.12,1,.16,1.08.12,1,.16,1,.16,1,.2,1,.16,1,.2,1,.2,1,.2,1,.2,1,.24,1,.2,1,.23,1,.24,1,.24,1,.24,1,.28,1,.24.95.28,1,.28,1,.28,1,.28.95.28,1,.28,1,.32.92.28.95.31,1,.32,1,.28.92.32,1,.32,1,.32,1,.32.92.32.95.32,1,.32.92.32,1,.35.95.32.92.32,1,.32,1,.32.95.36,1,.32.92.32,1,.32,1,.32,1,.32,1,.32,1,.31,1,.32,1,.32,1,.32,1,.32,1,.32,1,.28,1,.32,1,.28,1,.28,1,.32,1,.28,1,.28,1,.27,1,.28,1,.24,1,.28,1,.24,1,.24,1,.24,1.07.24,1,.24,1.08.2,1.07.24,1.08.2,1.08.2,1.08.2,1.11.16,1.12.2,1.08.16,1.15.15,1.12.12,1.12.16,1.15.12,1.16.12,1.16.12,1.2.08,1.15.12,1.2.08,1.2,0,1.19.08,1.24,0,1.24,0h5l1.28,0h0l1.28,0h5l1.24,0,1.2,0,1.19-.08,1.24,0,1.16-.08,1.19-.12,1.16-.08,1.2-.12,1.11-.12,1.16-.12,1.16-.16,1.12-.12,1.11-.15,1.12-.16,1.12-.2,1.07-.16L315,803l1.08-.2,1.08-.2,1.07-.24,1-.2,1.08-.24,1-.24,1.08-.24,1-.24,1-.24,1-.28,1-.24,1-.28,1-.27,1-.28,1-.28,1-.32,1-.28,1-.28,1-.32,1-.28,1-.32,1-.32,1-.32,1-.32.95-.32,1-.31,1-.32,1-.32,1-.32,1-.32,1-.32.92-.32.95-.36,1-.32,1-.32,1-.32.91-.32,1-.35,1-.32.92-.32,1-.32,1-.32.92-.32,1-.32.95-.32,1-.32.92-.28,1-.32.95-.31,1-.28,1-.32,1-.28.95-.28,1-.28,1-.28,1-.28,1-.28,1-.24,1-.28,1-.24,1-.24,1-.24,1-.23,1-.2,1-.24,1-.2,1-.2,1-.2,1-.2,1-.16,1-.2,1-.16,1-.16,1-.12,1.08-.16,1-.12,1.08-.12,1-.08,1.07-.12,1.08-.08,1.12-.08,1.08,0,1.11,0,1.12,0,1.12,0,1.11,0h1.12l1.16,0h0l.32-.88.4-.87.43-.84.52-.8.56-.8.64-.79.64-.76.72-.72.75-.72.84-.68.84-.63.88-.6,1-.6.95-.56,1-.56,1-.48,1.07-.48,1.12-.4,1.12-.39,1.16-.36,1.19-.32,1.2-.28,1.24-.24,1.23-.2,1.28-.16,1.28-.08,1.27-.08,1.32,0h3.11V684Z" transform="translate(-145.68 -630.94)"/><polygon class="cls-4" points="282.77 132.77 281.58 132.81 280.38 132.89 279.18 133.01 277.99 133.17 276.79 133.33 275.63 133.57 274.47 133.81 273.32 134.09 272.16 134.41 271.04 134.76 269.93 135.16 268.85 135.56 267.81 136 266.77 136.48 265.74 137 264.74 137.52 263.78 138.07 262.87 138.67 261.95 139.31 261.11 139.95 260.27 140.67 259.47 141.35 258.72 142.1 258 142.86 257.32 143.66 256.68 144.46 256.08 145.3 255.53 146.17 255.05 147.09 255.05 147.09 253.77 147.09 252.49 147.13 251.22 147.17 249.98 147.25 248.74 147.33 247.51 147.41 246.27 147.49 245.07 147.61 243.84 147.73 242.64 147.89 241.44 148.01 240.28 148.17 239.09 148.37 237.93 148.53 236.77 148.73 235.62 148.93 234.46 149.13 233.3 149.37 232.19 149.56 231.07 149.8 229.95 150.04 228.84 150.32 227.72 150.56 226.6 150.84 225.52 151.12 224.41 151.4 223.33 151.68 222.21 151.96 221.13 152.28 220.06 152.6 218.98 152.88 217.94 153.19 216.87 153.51 215.79 153.83 214.75 154.15 213.68 154.51 212.64 154.83 211.56 155.19 210.52 155.51 209.49 155.87 208.41 156.19 207.37 156.55 206.34 156.91 205.3 157.22 204.26 157.58 203.22 157.94 202.19 158.3 202.19 158.3 201.15 158.62 200.15 158.98 199.15 159.3 198.16 159.62 197.16 159.98 196.12 160.3 195.12 160.66 194.13 160.97 193.09 161.29 192.09 161.61 191.06 161.93 190.06 162.25 189.02 162.57 187.98 162.89 186.99 163.21 185.95 163.53 184.91 163.81 183.87 164.13 182.84 164.41 181.76 164.72 180.72 165 179.65 165.28 178.61 165.56 177.53 165.84 176.45 166.08 175.38 166.36 174.3 166.6 173.22 166.84 172.1 167.08 170.99 167.32 169.91 167.56 168.75 167.76 167.64 167.96 166.52 168.19 165.36 168.35 164.25 168.55 163.09 168.75 161.89 168.91 160.74 169.07 159.54 169.19 158.34 169.35 157.15 169.47 155.95 169.59 154.75 169.71 153.51 169.79 152.28 169.91 151 169.99 149.76 170.03 148.49 170.11 147.21 170.15 145.89 170.19 144.62 170.19 143.3 170.19 143.3 170.19 141.99 170.19 140.67 170.19 139.35 170.15 138.07 170.11 136.8 170.03 135.56 169.99 134.28 169.91 133.05 169.79 131.85 169.71 130.62 169.59 129.42 169.47 128.22 169.35 127.02 169.19 125.83 169.07 124.67 168.91 123.51 168.75 122.36 168.55 121.2 168.35 120.04 168.19 118.93 167.96 117.81 167.76 116.69 167.56 115.57 167.32 114.46 167.08 113.38 166.84 112.3 166.6 111.19 166.36 110.11 166.08 109.07 165.84 108 165.56 106.92 165.28 105.88 165 104.8 164.72 103.77 164.41 102.73 164.13 101.69 163.81 100.65 163.53 99.62 163.21 98.58 162.89 97.58 162.57 96.55 162.25 95.55 161.93 94.51 161.61 93.51 161.29 92.48 160.97 91.48 160.66 90.48 160.3 89.48 159.98 88.45 159.62 87.45 159.3 86.45 158.98 85.45 158.62 84.46 158.3 84.46 158.3 83.42 157.94 82.38 157.58 81.31 157.22 80.27 156.91 79.23 156.55 78.19 156.19 77.16 155.87 76.08 155.51 75.04 155.19 74 154.83 72.93 154.51 71.89 154.15 70.81 153.83 69.78 153.51 68.7 153.19 67.62 152.88 66.54 152.6 65.47 152.28 64.39 151.96 63.31 151.68 62.23 151.4 61.12 151.12 60.04 150.84 58.92 150.56 57.81 150.32 56.69 150.04 55.57 149.8 54.46 149.56 53.3 149.37 52.18 149.13 51.02 148.93 49.87 148.73 48.71 148.53 47.55 148.37 46.36 148.17 45.2 148.01 44 147.89 42.81 147.73 41.57 147.61 40.37 147.49 39.14 147.41 37.9 147.33 36.66 147.25 35.43 147.17 34.15 147.13 32.87 147.09 31.6 147.09 31.6 147.09 31.12 146.17 30.56 145.3 29.96 144.46 29.32 143.66 28.64 142.86 27.93 142.1 27.17 141.35 26.37 140.67 25.53 139.95 24.66 139.31 23.78 138.67 22.86 138.07 21.86 137.52 20.91 137 19.87 136.48 18.83 136 17.75 135.56 16.68 135.16 15.6 134.76 14.44 134.41 13.32 134.09 12.17 133.81 11.01 133.57 9.81 133.33 8.66 133.17 7.46 133.01 6.26 132.89 5.07 132.81 3.83 132.77 3.83 132.77 3.83 57.01 58.49 57.01 58.49 45.24 58.49 45.24 59 45.12 59.52 44.96 60.04 44.8 60.04 44.8 61.12 44.36 62.16 43.88 63.19 43.28 64.19 42.61 65.15 41.89 66.03 41.05 66.86 40.17 67.62 39.18 68.26 38.14 68.82 37.02 69.3 35.83 69.3 35.83 88.69 35.83 89.84 33.91 89.84 33.91 90.52 32.83 91.32 31.88 92.24 31 93.23 30.2 94.31 29.52 95.47 28.96 96.7 28.52 96.7 28.52 98.34 28.05 99.06 26.53 99.06 26.53 99.54 25.61 100.02 24.73 100.53 23.86 101.05 22.98 101.61 22.14 102.21 21.34 102.85 20.55 103.49 19.75 104.13 18.99 104.84 18.23 105.56 17.51 106.28 16.8 107.04 16.12 107.83 15.44 108.63 14.76 109.43 14.12 110.27 13.52 111.15 12.93 112.02 12.33 112.94 11.77 113.86 11.21 114.78 10.69 115.73 10.17 116.69 9.69 117.69 9.26 118.69 8.78 119.68 8.34 120.72 7.94 121.76 7.54 122.8 7.18 123.87 6.82 124.95 6.5 126.03 6.18 127.14 5.9 128.26 5.63 129.38 5.39 130.5 5.15 131.61 4.91 132.77 4.71 133.93 4.55 135.08 4.39 136.24 4.27 137.4 4.15 138.59 4.07 139.75 3.99 140.95 3.95 142.14 3.91 143.34 3.91 143.34 3.91 144.54 3.91 145.69 3.95 146.89 3.99 148.09 4.07 149.25 4.15 150.4 4.27 151.6 4.39 152.76 4.55 153.87 4.71 155.03 4.91 156.15 5.15 157.3 5.39 158.42 5.63 159.5 5.9 160.62 6.18 161.69 6.5 162.77 6.82 163.85 7.18 164.88 7.54 165.92 7.94 166.96 8.34 167.96 8.78 168.95 9.26 169.95 9.69 170.91 10.17 171.87 10.69 172.78 11.21 173.7 11.77 174.62 12.33 175.5 12.93 176.33 13.52 177.17 14.12 178.01 14.76 178.81 15.44 179.6 16.12 180.36 16.8 181.08 17.51 181.8 18.23 182.48 18.99 183.16 19.75 183.79 20.55 184.43 21.34 185.03 22.14 185.59 22.98 186.11 23.86 186.63 24.73 187.1 25.61 187.58 26.53 187.58 26.53 188.3 28.05 189.94 28.52 189.94 28.52 191.18 28.96 192.29 29.52 193.41 30.2 194.41 31 195.28 31.88 196.12 32.83 196.8 33.91 196.8 33.91 197.92 35.83 217.34 35.83 217.34 35.83 217.78 37.02 218.34 38.14 219.02 39.18 219.78 40.17 220.58 41.05 221.5 41.89 222.45 42.61 223.45 43.28 224.49 43.88 225.52 44.36 226.6 44.8 226.6 44.8 227.12 44.96 227.64 45.12 228.16 45.24 228.16 45.24 228.16 57.01 282.77 57.01 282.77 132.77 282.77 132.77 282.77 132.77"/><path class="cls-2" d="M426.54,689.87v72h0l-1.16.08-1.2.11-1.15.16-1.2.2-1.16.24-1.16.24-1.11.28-1.16.32-1.12.36-1.07.36-1.08.44-1.08.44-1.07.44-1,.51-1,.52-1,.56-.95.6-.92.64-.88.64-.88.67-.84.72-.79.72-.76.76-.72.8-.72.79-.64.84-.59.88-.56.88h0l-1.28,0-1.28,0-1.27.08-1.24.08-1.24.08-1.23.08-1.24.12-1.24.12-1.19.16-1.2.12-1.2.16-1.19.19-1.16.16-1.2.2-1.15.2-1.16.2-1.12.2-1.16.24-1.15.24-1.12.24-1.12.24-1.11.28-1.12.28-1.12.24-1.07.28-1.12.32-1.08.27-1.08.28-1.07.32-1.08.32-1.08.32-1.07.28-1.08.36-1,.32-1.08.32-1,.32-1.08.36-1,.32-1,.35-1,.32-1,.36-1,.32-1,.36-1,.36-1,.36-1,.32h0l-.24.08-.35.12-.24.08h0l-1,.36-1,.32-1,.36-1,.31-1,.36-1,.32-1,.36-1,.32-1,.32-1,.36-1,.32-1,.32-1,.32-1,.32-1,.31-1,.28-1,.32-1,.28-1,.32-1.08.28-1,.28-1.07.28-1.08.28-1.08.28-1.08.24-1.07.28-1.08.24-1.12.24-1.11.23-1.08.24-1.12.2-1.15.2-1.12.24-1.12.2-1.16.16-1.15.2-1.16.16-1.2.16-1.15.16-1.2.12-1.2.16-1.19.12-1.24.08-1.24.12-1.23.08-1.24.08-1.28.08-1.23,0-1.28,0-1.32,0-1.31,0h-2.6l-1.31,0-1.28,0-1.32,0-1.23,0-1.28-.08L280,798.9l-1.23-.08-1.24-.12-1.2-.08-1.23-.12-1.2-.16-1.16-.12-1.19-.16-1.16-.16-1.16-.16-1.15-.2-1.16-.16-1.12-.2-1.16-.24-1.11-.2-1.12-.2-1.12-.24-1.07-.23-1.12-.24-1.08-.24-1.08-.28-1.07-.24-1.08-.28-1.08-.28-1-.28L251.6,794l-1-.28-1.08-.32-1-.28-1-.32-1-.28-1-.31-1-.32-1-.32-1-.32-1-.32-1-.36-1-.32-1-.32-1-.36-1-.32-1-.32-1-.35-1-.32-1-.36-1-.36h0l-.24,0-.32-.12-.24-.08h0l-1-.36-1-.32-1-.36-1-.36-1-.36-1.08-.32-1-.36-1-.31-1-.36-1.08-.32-1-.36-1.08-.32-1-.32-1.08-.32-1.07-.32-1.08-.32-1.08-.32-1.08-.28-1.07-.32-1.08-.27-1.12-.28-1.07-.28-1.12-.28-1.12-.28-1.11-.24-1.12-.28-1.16-.24-1.12-.24-1.15-.2-1.16-.24-1.16-.2-1.15-.2-1.16-.2-1.2-.16-1.19-.19-1.2-.16-1.2-.12-1.19-.16-1.24-.12-1.2-.12-1.27-.08-1.24-.08-1.24-.08-1.27-.08-1.28,0-1.28,0h0l-.56-.88-.64-.88-.63-.84-.68-.79-.72-.8-.76-.76-.8-.72-.83-.72-.88-.67-.88-.64-1-.64-.91-.6-1-.56-1-.52-1-.51-1-.44-1.08-.44-1.08-.44-1.11-.36-1.12-.36-1.12-.32-1.16-.28-1.11-.24-1.16-.24-1.2-.2-1.15-.16-1.2-.11-1.16-.08h0v-72h54.62V677.62h0l.16-.08.28-.08.24-.08h0l1-.44,1-.52,1-.56,1-.64.91-.71.92-.8.88-.88.8-.92.71-1,.64-1.08.56-1.16h19.19l1.72-2.87h0l.83-1.2,1-1.11,1.2-.92,1.28-.72,1.43-.56h0l2.43-.72,1.12-2.31h0l.44-.88.48-.88.48-.83.56-.84L249,654l.55-.8.64-.8.64-.75.68-.76.68-.72.72-.72.71-.68.8-.67.76-.68.84-.64.79-.6.88-.6.88-.6.88-.55.92-.56.91-.52,1-.52,1-.48,1-.48,1-.44,1-.43,1-.4,1-.4,1.08-.36,1.08-.36,1.08-.32,1.11-.32,1.08-.28,1.16-.24L276,638l1.16-.2,1.16-.2,1.16-.2,1.15-.16,1.2-.15L283,637l1.15-.08,1.24-.08,1.2,0,1.19,0h2.44l1.19,0,1.24,0,1.2.08L295,637l1.2.12,1.2.15,1.15.16,1.16.2,1.16.2,1.12.24,1.15.24,1.12.24,1.08.32,1.11.28,1.08.36,1.08.36,1,.36,1,.4,1,.39,1,.44,1,.44,1,.48,1,.48,1,.52.91.52.92.56.88.55.88.56.87.6.8.64.84.64.76.68.8.67.71.68.72.72.72.72.64.76.68.75.6.8.59.8.56.8.56.84.52.87.48.84.44.92h0l1.11,2.27,2.44.72h0l1.43.56,1.28.72,1.2.92,1,1.07.84,1.24h0l1.64,2.87h19.27l.52,1.12.63,1.08.72,1,.76.92.84.84.92.8.91.71,1,.64,1,.56,1,.52,1,.44h0l.28.12.36.12.2,0h0v12.29Zm-53.7-13-.28-.12-.28-.08-.32-.12h0l-1.08-.4-1.07-.52-1-.56-1-.67-1-.72-.95-.8L365,672l-.8-1-.72-1-.64-1.12-.51-1.2H343l-1.4-2.39h0l-.76-1.12-.88-1-1-.92-1.12-.76-1.24-.64-1.27-.48h0l-2-.59-.92-1.92h0l-.47-.88-.48-.87-.52-.88-.52-.84-.56-.84-.6-.8-.63-.79-.64-.8-.64-.76-.72-.72-.72-.72-.72-.71-.75-.68-.8-.68-.8-.64-.84-.64-.84-.6-.87-.59-.88-.56-.92-.56-.92-.56-.91-.52-1-.48-1-.48-1-.47-1-.44-1-.4-1-.4-1-.4-1.08-.36-1.08-.32-1.08-.32-1.11-.32-1.08-.28-1.12-.24-1.15-.23-1.12-.24-1.16-.2-1.16-.16-1.15-.16-1.2-.16L295,636l-1.19-.08-1.16-.08-1.2,0-1.19,0h-2.44l-1.19,0-1.2,0-1.2.08L283,636l-1.2.12-1.16.16-1.16.16-1.15.16-1.16.2-1.16.24-1.11.23-1.12.24-1.12.28-1.11.32-1.08.32-1.08.32-1,.36-1.07.4-1,.4-1,.4-1,.44-1,.47-1,.48-1,.48-.91.52-.92.56-.92.56-.88.56-.88.59-.83.6-.84.64-.8.64-.8.68-.75.68-.72.71-.72.72-.68.72-.68.76-.64.8-.63.79-.6.8-.56.84-.52.84-.52.88-.48.87-.44.88h0l-.91,1.92-2.08.59h0l-1.27.48-1.24.64-1.12.76-1,.92-.87,1-.8,1.12h0l-1.4,2.39H215.61l-.52,1.2L214.5,670l-.72,1-.8,1-.84.92-.95.8-1,.72-1,.67-1,.56-1.07.52-1.08.4h0l-.28.12-.32.08-.32.12h0v12H150.47v73.88h0l1.19.08,1.16.08L154,763l1.15.2,1.16.16,1.16.24,1.11.28,1.12.28,1.12.32,1.12.36,1.07.4,1,.4,1,.43,1,.48,1,.52,1,.52,1,.56.91.6.92.6.84.63.84.68.8.72.75.72.72.76.72.75.64.8.6.84.55.88.52.88h1.28l1.24,0,1.23.08,1.24,0,1.24.08,1.23.12,1.2.08,1.2.12,1.19.12,1.2.16,1.16.12,1.16.16,1.15.2,1.16.16,1.16.2,1.15.2,1.12.2,1.12.2,1.11.24,1.12.24,1.12.24,1.12.24,1.07.28,1.08.24,1.12.27,1.07.28,1.08.28,1,.28,1.08.32,1.07.28,1,.32,1.08.32,1,.28,1,.32,1.08.32,1,.36,1,.32,1,.31,1,.32,1,.36,1,.32,1,.36,1,.32,1,.36,1,.32,1,.36,1,.36h0l.2,0,.31.12.2.08h0l1,.31,1,.36,1,.36,1,.32,1,.36,1,.32,1,.32,1,.36,1,.32,1,.32,1,.36,1,.31,1,.32,1,.32,1.07.32,1,.28,1,.32,1,.28,1.08.32,1,.28,1.08.28,1.07.28,1.08.28,1.08.28,1.08.27,1.07.24,1.12.24L260,797l1.07.24,1.12.2,1.16.24,1.11.2,1.12.2,1.16.2,1.16.2,1.15.2,1.2.16,1.16.16,1.19.16,1.2.12,1.2.16,1.23.12,1.2.12,1.24.08,1.27.07,1.24.08,1.28.08,1.27.08,1.28,0h1.32l1.31,0h2.64l1.31,0h1.32l1.28,0,1.31-.08,1.24-.08,1.28-.08,1.23-.07,1.24-.08,1.24-.12,1.23-.12,1.2-.16,1.2-.12,1.19-.16,1.16-.16,1.2-.16,1.15-.2,1.16-.2,1.16-.2,1.12-.2,1.15-.2,1.12-.24,1.12-.2L318,797l1.08-.28,1.12-.24,1.07-.24,1.12-.27,1.08-.28,1.08-.28,1-.28,1.08-.28,1.08-.28,1-.32,1.08-.28,1-.32,1-.32,1-.28,1-.32,1-.32,1-.35,1-.32,1-.32,1-.32,1-.36,1-.32,1-.36,1-.32,1-.36,1-.32,1-.36,1-.31h0l.16-.08.27-.08.2-.08h0l1-.32,1-.36,1-.36,1-.32,1-.36,1-.32,1-.36,1-.32,1-.36,1-.31,1-.32,1-.32,1-.32,1-.32,1.07-.32,1-.32,1.08-.28,1-.32,1.08-.28,1.08-.32,1.08-.28,1.07-.28,1.08-.27,1.12-.24,1.07-.28,1.12-.24,1.12-.24,1.12-.24,1.11-.2,1.12-.24,1.12-.2,1.15-.2,1.16-.2,1.16-.16,1.15-.2,1.16-.16,1.16-.12,1.2-.16,1.19-.12,1.2-.12,1.2-.08,1.23-.12,1.24-.08,1.24,0,1.23-.08,1.24,0h1.28l.51-.88.56-.88.6-.84.68-.8.68-.75.72-.76.75-.72.8-.72.84-.68.88-.63.87-.6.92-.6,1-.56,1-.52,1-.52,1-.48,1-.43,1.08-.4,1.07-.4,1.08-.36,1.12-.32,1.12-.28,1.11-.28,1.16-.24,1.16-.16L424,763l1.16-.12,1.2-.08,1.15-.08h0V688.87H372.84v-12Z" transform="translate(-145.68 -630.94)"/><path class="cls-5" d="M201.49,761.32l-1-.2-.91-.32-.84-.44h0l-.72-.52-.64-.64-.56-.72h0l-.48-.71L196,757l-.28-.88h0l-.24-.84-.12-.87,0-.88h0V753h0l.08-.76.16-.72.2-.76h0l.24-.71.27-.68.36-.68h0l.36-.6.4-.56.4-.48h0l.44-.43.44-.32.4-.28h0l.64-.28.55-.2.52,0H201l.28.08.28.12h0l.52.36.48.56.4.79h0l-.4.08-.32,0-.28.08h0l-.84.32-.76.4-.75.56h0l-.68.68-.56.8-.48.83h0l-.2.72-.12.64,0,.68h0l0,.72.16.63.24.64h0l.28.56.4.52.44.48h0l.48.4.55.32.56.28h0l.6.2.64.12.64,0h.32l.32,0,.36-.08h0l1-.36.84-.52.76-.64h0l.52-.64.4-.76.28-.83h0v-.12l0-.08h0l0,0V754h0l0,0-.08,0-.08,0h0l-.08,0L207,754l-.08.12h0l-.6.71-.64.52-.64.4h0l-.56.24-.68.16-.71,0h-.44l-1.08-.24-.88-.4-.71-.56h0l-.48-.63-.28-.72-.08-.8h0l0-.44.08-.4.12-.44h0l.16-.4.24-.4.27-.35h0l.72-.72.88-.52,1-.36h0l.68-.16.95,3.31h0l0,.12.08,0,.12,0h.08l.08,0,0-.08h0v0l0,0v0h0v-3.23h.2l.08,0h0l.36.08.32.08.32.12h0l.92.44.79.6.68.75h0l.52,1.12.32,1.12.12,1.2h0l-.08.91-.2.88-.32.88h0l-.4.84-.52.75-.63.68h0l-.72.64-.8.52-.84.44h0l-1,.32-.95.2-1,0h-.48Zm3.87-13.65-.4-.08h0l-.08,0h-.12v0h0v0h0v-4.34h0v0h0l0-.12-.08-.12h-.16l-.08,0-.08.08h0l-.32.39-.35.32-.4.24h0l-.44.2-.48.12-.48,0h-.32l-.6-.24-.44-.32-.4-.4h0l-.23-.43-.16-.48,0-.52h0l0-.32,0-.32.08-.32h0l.12-.28.15-.28.2-.24h0l.44-.44.56-.28.6-.08h0l.48,0,.48.15.48.24h0l.59.36.56.48.56.6h0l0,0,.08,0h.16l0,0,0-.08,0,0h0v0h0v-2h0v0h0V739l0-.08v0h0l0,0-.08-.08-.08,0h0l-1.08-.44L203,738l-1.08-.08h0l-.72,0-.72.12-.67.2h0l-.6.24-.56.32-.52.4h0l-.48.39-.36.48-.32.48h0l-.2.52-.16.52,0,.52h0l0,.48.12.48.2.47h0l.24.32.28.36.36.32h0l-.84.32-.8.4-.71.48h0l-.76.6-.64.67-.6.76h0l-.48.76-.4.84-.31.88h0l-.24.91-.12.92,0,.92h0l.08,1.16.2,1.07.31,1.08h0l.48,1,.6,1,.72.88h0l.88.84,1,.68,1.11.56h0l1.32.44L200,762l1.52.12h0l1.36-.08,1.23-.23,1.2-.4h0l1-.52.92-.64.83-.76h0l.68-.8.56-.87.48-.92h0l.32-1,.2-1,0-1h0l0-.68-.08-.68-.16-.68h0l-.28-.64-.28-.63-.4-.56h0l-1-1.08-1.27-.8-1.52-.56Z" transform="translate(-145.68 -630.94)"/><path class="cls-3" d="M277.09,773.8l-1.28.08-1.23.16-1.2.28-1.16.32-1.11.44-1.12.52-1.08.56-1.07.6-1,.63-1,.68-1,.72-.95.68h0l-1.92,1.28-1.79,1.07-1.6.84-1.48.64-1.31.48-1.2.32-1,.24-.91.12-.8,0h-.68l-.6-.08-.44,0h0l-1.39.51-1.48.44-1.52.32h0l.52.36.64.32.64.24.72.2.8.16.83.08.88,0,1-.08,1-.12,1-.24,1.08-.28,1.12-.4,1.19-.52,1.2-.6,1.28-.71,1.31-.84,1.32-1,1.4-1.12L265,780h0l1-.76,1-.76,1-.72,1-.71,1.08-.64,1.12-.6,1.11-.56,1.16-.48,1.16-.4,1.19-.32,1.2-.2h.08v0Zm10,1.88-.63.72-.8.36-.92.08h0l.32.35.36.52.32.68.32.76.28.88.24,1,.2,1,.08,1.08,0,1.08-.08,1.11-.24,1.12-.32,1.08-.48,1-.64,1-.84.88-1,.8-1.23.68h0l-1.76.51-1.55.2-1.28,0-1-.31-.68-.48-.31-.6h0l-1-.16-1-.28-1-.44-.87-.56-.8-.68-.72-.79-.6-.88-.4-1-.28-1,0-1.07.16-1.12.4-1.16h0l.56-1,.72-.79.84-.68.95-.56,1-.4,1-.2,1.08-.08,1,.08,1,.24,1,.4.8.6h0l.87.84.52.91.24.88v.88l-.24.8-.44.72-.6.55-.71.4-.8.2-.84,0-.84-.32h0l-.87-1.07,0-1.12,1-.84h0l1,0,.68.56.24.84-.28.84-.8.55h0l.76.08.76-.24.67-.51.56-.68.24-.88,0-1-.44-1-.95-1.07h0l-.84-.52-.88-.36-.84-.24-.87-.08h-.88l-.8.16-.84.24-.72.36-.71.44-.64.52-.56.59-.44.64-.4.72-.24.76-.12.8v.84l.16.87.32.88.48.88.64.84h0l.72.67.75.56.8.48.84.36.88.24.91.16.92.08h.92l.92-.08.91-.2.88-.24.84-.36.8-.4.76-.52.71-.55.64-.6.52-.72.48-.76.36-.8.28-.87.16-1v-1l-.08-1h0l0-.08h0l0,.08h0l-.28,1.52-.44,1.28-.6,1.11-.68.92-.75.76-.84.6-.88.48-1,.31-1,.2-.91.12h-1l-.88-.08h0l-1.27-.35-1.08-.6-.88-.76-.68-.88-.44-1-.24-1,0-1,.28-.84.56-.76h0l.32-.24.44-.24H274l0,.16-.16.36-.16.4h0l-.12,1.32.48,1.31.88,1.2h0l.76.64.91.52,1,.32,1.16.12,1.19-.16,1.28-.44,1.32-.8h0l1-1.08.72-1.11.44-1.12.28-1.12v-1.07l-.12-1-.32-1-.44-.88-.6-.75-.67-.64-.72-.48-.84-.36h0l-.76-.16-.84,0-.79.2h0l-.4.16-.44.2-.4.28h0l-.32.28-.12,0v-.36h0l.48-1,.72-.6.64-.28h0l-1.16-.08-1.16.08-1.11.2-1.12.32-1.12.44-1,.52-1,.64-1,.68-.92.71-.8.8-.75.84-.68.88-.56.91-.48.88-.4.88-.24.88-.12.87v.8l.12.8h0l.16.32.12.28,0,.12h-.16l-.36-.08-.48-.16h0l-1-.64-.64-.92-.24-1h0l-1.08.75-1.08.68-1.11.64-1.16.52-1.16.48-1.15.36-1.16.32-1.2.24-1.15.12-1.12,0h-1.12l-1-.12-1-.2-1-.28-.92-.36-.84-.44-.75-.56-.72-.6h0l-.64,0-.76,0-.84,0-.95,0-1,0-1.12-.16-1.15-.2-1.16-.28-1.24-.36-1.2-.51-1.19-.6-1.2-.72-1.16-.88-1.07-1-1-1.19h0l-.16-.32.08-.12.32.2h0l.56.6.64.59.75.56.84.56.92.52,1,.48,1.11.4,1.2.36,1.28.28,1.35.2,1.48.12h1.52l1.63-.08h0l-.52-1.24-.32-1.24-.08-1.15.12-1.12.28-1,.4-1,.56-.87.68-.76.8-.68.83-.6.88-.44.92-.32,1-.2h0l1.59,0,1.28.36,1,.64.83.8.72.84.68.83h0l.36.48.44.48.52.32h0l.4.12h.47l.68-.12h0l.2-.08.2-.08.2,0h0l0,.08-.16.28-.2.32h0l-.84.76-1.27.2-1.12-.84h0l-.6,1.2-1,1-1.16.52-1.28,0-1.12-.56h0l-.51-.83.12-1,.87-.76h0l1.44.08.84.84,0,1.12h0l.72-.24.51-.4.32-.52.2-.64,0-.72-.16-.76-.32-.75-.47-.72-.6-.64-.72-.56-.88-.4-1-.24h-1l-1.2.2h0l-1.44.76-1.11.84-.88.92-.6.95-.4,1-.16,1,0,1,.12.91.2.84.32.72.36.6.36.44h0l1.19-.2,1.16-.24,1.16-.24,1.16-.28L250,783l1.12-.32,1.12-.36,1.11-.4,1.12-.4,1.08-.44,1.08-.43,1.11-.48,1-.52,1.08-.48,1-.52,1-.56,1-.56,1-.55,1-.56h0l1-.48,1-.44,1.07-.48,1.12-.44,1.12-.4,1.12-.4,1.15-.32,1.16-.23L275,773l1.15-.08,1.16,0,1.16.16,1.11.28,1.12.43,1.08.6h0l1.16.36,1.23.44,1.4.2,1.51-.4h0l.12,0v.28l-.12.32Z" transform="translate(-145.68 -630.94)"/><path class="cls-5" d="M184.46,733.07h5.34V721.54h0l.72-.64.8-.63.84-.56h0l.91-.48,1-.44,1-.36h0l1-.28,1.11-.16,1.2,0h.6l.64,0,.63.08h0v-5.74h0l-.28.08-.35.08-.48.16h0l-.56.2-.64.27-.72.32h0l-.76.44-.83.48-.88.6h0l-.92.68-1,.8-.95.91h0l-.08.08-.12.12-.16.16h0l-.16.2-.16.16-.2.2h0l-.16.2-.2.2-.16.16h0l-.16.16-.12.12-.08.12h-.64l-.08,0-.08,0-.08-.08h0l0-.08v-.24h0v-6.42l-4.82,1.31v19.43Zm20.82-10.45.08,1.67.28,1.56.44,1.4h0l.6,1.31.84,1.16,1,1h0l.32.28.36.28.4.28h0l.48.31.56.32.64.28h0l.71.28.8.24.92.24h0l1,.16,1.11.08,1.28,0h0l1.8-.08,1.63-.28,1.56-.4h0l1.39-.6,1.28-.71,1.12-.88h0l.95-1,.8-1.12.64-1.19h0l.44-1.32.28-1.4.12-1.51h0l0-.48,0-.56-.08-.56h0l-.12-.6-.16-.59-.2-.64h0l-.2-.6-.24-.6-.24-.56h0l-.28-.56-.32-.48-.36-.47h0l-.39-.48-.48-.52-.52-.48h0l-.6-.44-.68-.44-.76-.4h0l-.83-.32-.92-.32-1-.23h0l-1.16-.2-1.23-.12-1.36,0h0l-1.56.08-1.47.2-1.4.31h0l-1.31.48-1.24.64-1.12.76h0l-1,.92-.83,1.07-.68,1.2h0l-.52,1.4-.32,1.51-.12,1.68Zm11.81-7.34h.72l.36,0h0l.4.08.35,0,.32.12h0l.68.2.64.32.64.4h0l.52.43.48.56.4.64h0l.19.44.2.52.16.56h0l.16.56.12.55.08.6h0l0,.56,0,.52,0,.48h0l0,.6,0,.64-.08.63h0l-.12.68-.2.68-.24.68h0l-.28.68-.39.59-.44.56h0l-.52.52-.64.44-.72.4h0l-.8.28-1,.16-1,0h0l-1,0-.84-.12-.79-.24h0l-.68-.32-.6-.36-.56-.44h0l-.44-.48-.4-.51-.36-.52h0l-.27-.56-.24-.52-.2-.56h0l-.16-.56-.12-.48-.08-.48h0l0-.39,0-.36v-.32h0v-.64l.08-.68.08-.68h0l.12-.72.2-.71.24-.72h0l.31-.68.4-.64.48-.6h0l.52-.51.68-.44.72-.4h0l.88-.28.95-.2,1.08,0Zm18.55,17.79h5.15V719.39h0l0-.08.12-.12h0l.16-.16.24-.24.27-.28h0l.36-.36.48-.44.56-.48h0l.08-.08.2-.16.24-.2h0l.32-.19.4-.28.44-.24h0l.48-.28.51-.2.56-.2h0l.64-.2.6-.08.68,0h0l.68,0,.59.12.44.2h0l.4.2.28.28.24.28h0l.16.32.08.27.08.32h0l0,.24v.4h0v15.32h5.07v-15.4h0l0-.92-.12-.75-.16-.64h0l-.2-.56-.28-.44-.28-.36h0l-.36-.28-.36-.24-.4-.2h0l-.6-.24-.59-.19-.68-.12h0l-.68-.12-.68-.08h-.68l-1.47.08-1.36.24-1.24.35h0l-1.15.52-1.08.64-.92.76h0l-1.16,1h0l-.15.12-.16.12-.16.12h0l-.2.08-.16.07-.16.05h0l-.12-.05-.12,0-.08-.08h0l-.08-.08,0-.08v-.08h0v-4l-4.71,1.27v19.43Zm37.14-28.36L282.16,733h6.18l3.43-11.89,2.32-11h0l.08-.08,0-.12.08-.08h0l.12-.08.11,0,.12-.08h0l.12.08.12,0,.12.08h0l.12.12.08.12,0,.12h0l1.88,9.74,3.55,13h6.18l8.9-27.88h0l0-.08V705h0l0-.08v-.16H310.4l-3.87,14.92-1.67,7.66h0l0,.16-.08.12-.12.12h0l-.12.08-.12.12-.12.08h0l-.08-.08-.08,0,0,0h0l-.08,0,0-.08v0h0l-1.76-7.86L298,704.71h-6.31L287.5,720l-1.79,7.66h0l-.08,0-.12.08-.08,0h0l-.12.08-.12.08-.12,0h0l-.52-.35L282.88,720l-4.19-15.28Zm44.68,17.91.08,1.67.24,1.56.44,1.4h0l.6,1.31.84,1.16,1,1h0l.32.28.35.28.44.28h0l.48.31.52.32.64.28h0l.72.28.79.24.92.24h0l1,.16,1.16.08,1.23,0h0l1.8-.08,1.67-.28,1.52-.4h0l1.4-.6,1.27-.71,1.12-.88h0l1-1,.8-1.12.63-1.19h0l.48-1.32.24-1.4.12-1.51h0l0-.48,0-.56-.08-.56h0l-.12-.6-.16-.59-.16-.64h0l-.24-.6-.2-.6-.27-.56h0l-.28-.56-.32-.48-.32-.47h0l-.44-.48-.48-.52-.52-.48h0l-.6-.44-.68-.44-.75-.4h0l-.84-.32-.92-.32-1-.23h0l-1.15-.2-1.24-.12-1.36,0h0l-1.51.08-1.48.2-1.43.31h0l-1.32.48-1.24.64-1.11.76h0l-1,.92-.84,1.07-.68,1.2h0l-.52,1.4-.32,1.51-.08,1.68Zm11.77-7.34H330l.4,0h0l.36.08.36,0,.36.12h0l.68.2.63.32.6.4h0l.52.43.48.56.4.64h0l.2.44.2.52.16.56h0l.16.56.12.55.08.6h0l.08.56,0,.52v.48h0v.6l0,.64-.12.63h0l-.12.68-.2.68-.24.68h0l-.28.68-.36.59-.48.56h0l-.52.52-.64.44-.71.4h0l-.8.28-1,.16-1,0h0l-.95,0-.84-.12-.76-.24h0l-.72-.32-.6-.36-.52-.44h0l-.47-.48L324,728l-.36-.52h0l-.28-.56-.24-.52-.2-.56h0l-.16-.56-.12-.48-.08-.48h0l0-.39v-.36l0-.32h0l0-.64,0-.68.08-.68h0l.12-.72.2-.71.28-.72h0l.28-.68.4-.64.48-.6h0l.55-.51.64-.44.76-.4h0l.84-.28,1-.2,1.07,0Zm18.43,17.79H353V721.54h0l.72-.64.8-.63.87-.56h0l.92-.48,1-.44,1-.36h0l1.07-.28,1.12-.16,1.16,0h.64l.63,0,.64.08h0v-5.74h0l-.28.08-.36.08-.47.16h0l-.56.2-.64.27-.72.32h0l-.8.44-.84.48-.87.6h0l-.92.68-.92.8-1,.91h0l-.12.08-.07.12-.16.16h0l-.16.2-.16.16-.2.2h0l-.2.2-.16.2-.16.16h0l-.16.16-.12.12-.12.12h-.64l-.08,0-.08,0,0-.08h0l0-.08,0-.12v-.12h0v-6.42l-4.83,1.31v19.43Zm39.06-20.19-10.77,10,11.13,10.21h6v-.32l-11.41-10.13,10.9-9.74Zm-16.83,20.19H375V704.31h-.8l-4.26,1.23v27.53Zm44-18.91-1.16-.48-1.07-.36-1-.24h0l-.92-.2-.88-.15-.8-.08h0l-.79,0-.72,0h-.72l-1.2,0-1.11.12-1.12.19h0l-1,.32-1,.36-.87.44h0l-.8.48-.64.6-.52.68h0l-.44.72-.24.75-.08.84h0l.08.88.24.76.44.71h0l.6.68.8.64,1,.6h0l1.23.6,1.44.6,1.71.6h0l1.16.35,1,.36.88.32h0l.71.28.64.28.52.28h0l.4.24.32.28.2.32h0l.16.32.08.36,0,.4h0l-.08.51-.2.52-.32.52h0l-.44.44-.6.36-.68.36h0l-.83.24-.92.16-1,0h-.8L404,731l-.76-.12h0l-.72-.16-.72-.2-.76-.28h0l-.79-.32-.84-.4-.92-.48h0l-2,2.64h0l.63.23.68.28.8.32h0l.88.28,1,.24,1,.24h0l1.2.16,1.28.12,1.39,0h0l1.84-.08,1.71-.28,1.56-.44h0l1.36-.56,1.15-.71,1-.84h0l.72-1,.4-1,.16-1.15h0l0-.68-.16-.6-.2-.56h0l-.32-.48-.36-.48-.4-.4h0l-.44-.35-.48-.36-.48-.28h0l-.51-.28-.48-.2-.48-.2h0l-.44-.16-.4-.16-.36-.12h0l-4.83-1.64h0l-.63-.2-.56-.23-.56-.24h0l-.52-.28-.44-.28-.4-.36h0l-.28-.4-.2-.4,0-.48h0l0-.44.16-.44.24-.39h0l.4-.4.48-.32.6-.28h0l.72-.2.83-.16,1,0h0l1,0,.84.08.79.12h0l.72.16.72.24.68.24h0l.68.32.68.32.71.31h0l1.52-2.71ZM162.67,733.07h13.25v-2.51h-3.71V707.3h3.71v-2.59H162.67v2.59h3.55v23.26h-3.55v2.51Z" transform="translate(-145.68 -630.94)"/><path class="cls-5" d="M244.74,759V748.75h-2.4v7.14h0l-.44.48-.43.4-.4.4h0l-.36.32-.36.28-.36.2h0l-.36.16-.4.11-.4,0h0l-.32,0-.32-.07-.2-.12h0l-.2-.12-.15-.2-.12-.2h0l-.08-.2,0-.2,0-.2h0v-.52h0v-7.66h-2.52v8.18h0l.08.6.12.52.2.43h0l.32.36.32.28.44.24h0l.44.12.48.12h1.11l.56-.12.52-.16h0l.52-.2.48-.24.44-.32h0l.12-.12.16-.12.12-.15h0l.16-.12.12-.12.11-.12h0l.12-.12.12-.12.12-.12h0l0,0h.24l0,0h0v0l0,0v0h0v0l0,0h0v2l2.28-.6ZM256,749.43l-.56-.24-.52-.2-.48-.12h0l-.44-.12-.44-.08-.36,0h0l-.39,0h-1.28l-.52.08-.56.12h0l-.48.16-.48.16-.39.24h0l-.4.28-.28.32-.28.32h0l-.2.4-.12.39,0,.44h0l0,.44.12.44.2.36h0l.32.36.36.32.51.32h0l.6.32.68.32.84.31h0l.56.2.48.16.4.16h0l.35.16.32.16.24.12h0l.2.16.16.16.08.16h0l.08.16,0,.16,0,.24h0l0,.28-.12.28-.16.24h0l-.2.24-.28.2-.32.16h0l-.39.15-.48.08h-.88l-.36,0-.32,0h0l-.36-.07-.36-.12-.36-.16h0l-.4-.16-.39-.2-.44-.28h0l-1,1.39h0l.28.12.36.16.36.16h0l.44.16.43.12.52.12h0l.56.08.64.08h.68l.88,0,.83-.12.76-.24h0l.64-.32.56-.36.48-.43h0l.32-.52.2-.56.08-.6h0v-.36l-.08-.32-.12-.28h0l-.12-.28L256,755l-.2-.2h0l-.2-.2-.24-.15-.24-.16h0l-.24-.16-.24-.12-.2-.08h0l-.24-.08-.2-.08-.16-.08h0l-2.35-.84h0l-.28-.12-.28-.12-.28-.12h0l-.24-.16-.2-.16-.2-.2h0l-.12-.2-.08-.2,0-.24h0v-.24l.08-.24.12-.19h0l.2-.2.24-.2.28-.12h0l.36-.12.4-.08.48,0h0l.44,0,.44,0,.35.08h0l.36.08.36.12.32.12h0l.32.16.32.16.36.19h0l.72-1.43Zm1.87,1.31h2.08v6.55h0v.4l.12.36.16.31h0l.2.24.19.24.28.16h0l.28.16.32.12.28.08h0l.32.08.28.08h.28l.24,0h1l.32,0h0l.35-.08.32,0,.36-.08h0l.32-.08.28-.08L266,759h0v-1.59h0l-.24.08-.24.08-.28.12h0l-.28.08-.28.08-.28,0h0l-.27.08h-.28l-.28,0h0l-.28,0-.24,0-.2,0h0l-.16-.08-.12-.12-.08-.08h0l-.08-.12,0-.12v-.08h0l0-.12v-.12h0v-6.35h2.43v-1.15h-2.27v-4h-.28l-2.35,1.63v2.4h-2.08v1.15Zm10.1,3.12,0,.87.12.84.19.76h0l.32.68.4.6.48.52h0l.16.15.16.12.2.16h0l.24.16.28.16.28.16h0l.36.16.4.12.43.12h0l.48.08.52,0,.6,0h0l.88,0,.8-.16.75-.2h0l.68-.32.6-.4.56-.43h0l.44-.52.4-.56.32-.64h0l.2-.72.16-.72,0-.79h0l0-.24v-.32l0-.28h0l-.08-.32,0-.32-.12-.32h0L279,752l-.12-.32-.12-.28h0l-.16-.28-.12-.28-.16-.23h0l-.2-.28-.24-.24-.28-.24h0l-.28-.24-.32-.24-.36-.2h0l-.4-.2-.48-.16-.47-.12h0l-.56-.12-.6,0-.64,0h0l-.76,0-.72.12-.67.16h0l-.64.28-.6.32-.52.4h0l-.48.48-.4.55-.36.64h0l-.23.72-.16.8,0,.88Zm5.66-3.83h.56l.16,0,.2,0,.16,0h0l.32.12.32.16.28.2h0l.27.23.2.32.2.32h0l.12.24.08.28.08.28h0l.08.28,0,.32,0,.28h0l0,.32,0,.24V754h0v.32l0,.31,0,.36h0l-.08.36-.08.36-.12.36h0l-.12.32-.2.32-.2.32h0l-.27.28-.28.2-.36.2h0l-.4.16-.44.08-.52,0h0l-.44,0-.44,0-.36-.16h0l-.32-.16-.31-.2-.24-.2h0l-.24-.24-.2-.28-.16-.28h0l-.12-.28-.12-.32-.12-.28h0l0-.28-.08-.24,0-.24h0v-.24l0-.19v-.16h0v-.32l0-.36,0-.36h0l.08-.4.08-.36.12-.36h0l.16-.36.2-.36.2-.28h0l.28-.28.31-.27.36-.2h0l.4-.12.48-.12Zm9.1,9.33H285V752.5h0l.32-.28.28-.28.2-.2h0l.2-.2.16-.12.16-.16h0l.12-.08.08-.12.12-.08h0l.08,0,.12-.08.08-.08h0l.31-.19.28-.2.28-.12h0l.2-.12.2-.08.2,0h0l.2,0,.16,0h.48l.16,0h0l.16,0,.12,0,.12.12h0l.12.12.12.12.08.2h0l.08.23,0,.28v.36h0v7.86h2.39v-7h0l.52-.48.48-.44.44-.36h0l.43-.35.4-.28.36-.2h0l.4-.16L296,750l.36,0h0l.32,0,.28,0,.24.12h0l.16.12.16.16.12.16h0l.08.19,0,.2,0,.2h0v.68h0v7.54h2.39v-7.74h0v-.72l0-.27h0v-.24l0-.24,0-.16h0l0-.16,0-.16-.08-.12h0l-.08-.12-.08-.08-.08-.12h0l-.24-.2-.24-.16-.28-.12h0l-.24-.12-.24,0-.23,0h0l-.24,0h-.68l-.32,0-.32,0h0l-.36.08-.32.12-.36.16h0l-.32.16-.4.2-.35.24h0l-.44.28-.44.36-.48.36h0l-.08,0-.08.08-.08,0h0l0,.07-.08,0-.08,0h0v0h-.08l-.08,0h0l0-.27,0-.24-.08-.28h0l-.08-.24-.12-.28-.2-.24h0l-.2-.2-.24-.2-.32-.16h0l-.4-.12-.43-.08-.52,0h0l-.36,0-.36,0-.28,0h0l-.28.08-.28.08-.24.12h0l-.2.08-.2.12-.16.08h0l-.16.12-.16.08-.12.08h0l-.11.08-.16.12-.12.08h0l-.16.12-.16.16-.2.16h0l-.2.2-.28.24-.32.27h0l0,0-.08.08h0l0,0-.08,0H285l-.16-.16v-2.47l-2.19.6v10.29Zm34.15-13h.79l.76,0,.64.08h0l.64.08.52.16.52.15h0l.43.2.44.24.36.32h0l.32.32.24.32.24.32h0l.2.36.16.36.16.36h0l.08.4.08.36.08.39h0l0,.36v.72h0v.56l0,.56-.08.52h0l-.16.52-.16.51-.24.48h0l-.28.48-.36.4-.44.4h0l-.48.32-.55.28-.68.24h0l-.72.16-.84.12-.92,0h-2.11V746.36Zm.28,13h1l1-.08.84-.08h0l.76-.16.67-.16.64-.16h0l.56-.24.48-.2.4-.23h0l.4-.28.32-.24.28-.24h0l.24-.28.23-.24.2-.24h0l.28-.4.24-.44.24-.4h0l.16-.4.16-.39.08-.4h0l.12-.4,0-.36,0-.36h0l0-.32,0-.28v-.28h0l-.08-1.16-.16-1-.32-1h0l-.4-.92-.56-.8-.67-.71h0l-.84-.6-1-.48-1.12-.4h0l-1.27-.32-1.44-.16-1.59,0h-4.43v14.88Zm23.41-6.1,0-.64-.12-.6-.24-.6h0l-.23-.52-.36-.51-.44-.48h0l-.48-.4-.56-.36-.64-.28h0l-.72-.2-.75-.12-.84,0h-.52l-.36,0h0l-.36.08-.4.08-.4.12h0l-.44.16-.43.16-.4.24h0l-.44.32L331,750l-.4.4h0l-.32.47-.28.52-.24.64h0l-.2.68-.08.76,0,.84h0l0,.83.12.72.24.68h0l.32.64.4.56.48.47h0l.52.4.6.36.67.28h0l.72.2.76.12.84,0h0l.64,0,.55,0,.52,0h0l.48-.12.4-.08.4-.12h0l.32-.16.36-.12.28-.16h0l.28-.16.24-.16.24-.16h0l-1.44-.95h0l-.16.12-.2.12-.24.12h0l-.28.12-.28.12-.36.12h0l-.44.08-.47.07h-.52l-.8,0L334,758l-.56-.28h0l-.48-.4-.36-.44-.27-.56h0l-.2-.64L332,755v-.75h8.57l0-1Zm-8.45-.24v-.28l0-.2h0l0-.2,0-.2,0-.24h0l.08-.24.11-.24.12-.24h0l.28-.4.36-.31.4-.28h0l.48-.2.52-.12.56,0h0l.64,0,.55.16.44.2h0l.4.32.32.39.24.44h0l.2.48.12.56v.6h-6Zm19.26-3.59-.55-.24-.52-.2-.48-.12h0l-.44-.12-.4-.08-.4,0h0l-.36,0h-1.27l-.56.08-.52.12h0l-.52.16-.44.16-.44.24h0l-.36.28-.31.32-.28.32h0l-.16.4-.12.39,0,.44h0l0,.44.08.44.24.36h0l.27.36.4.32.48.32h0l.6.32.72.32.8.31h0l.56.2.47.16.44.16h0l.36.16.28.16.24.12h0l.2.16.16.16.12.16h0l.08.16,0,.16v.24h0l0,.28-.08.28-.16.24h0l-.24.24-.28.2-.32.16h0l-.4.15-.44.08h-.87l-.36,0-.36,0h0l-.36-.07-.36-.12-.36-.16h0l-.36-.16-.44-.2-.44-.28h0l-.95,1.39h0l.32.12.32.16.39.16h0l.4.16.48.12.52.12h0l.56.08.6.08h.68l.87,0,.84-.12.76-.24h0l.64-.32.6-.36.43-.43h0l.36-.52.2-.56.08-.6h0l0-.36-.08-.32-.12-.28h0l-.12-.28-.16-.24-.19-.2h0l-.24-.2-.2-.15-.24-.16h0l-.24-.16-.24-.12-.24-.08h0l-.24-.08-.16-.08-.2-.08h0l-2.31-.84h0l-.32-.12-.28-.12-.24-.12h0l-.28-.16-.2-.16-.2-.2h0l-.12-.2-.08-.2,0-.24h0l0-.24,0-.24.16-.19h0l.16-.2.24-.2.28-.12h0l.36-.12.4-.08.48,0h0l.47,0,.4,0,.36.08h0l.36.08.36.12.32.12h0l.32.16.32.16.36.19h0l.71-1.43Zm3.79-2.63h3.24v-2h-3.24v2Zm.4,12.56H358V748.75h-2.52v10.61Zm15-9.05,0,.08v0l0,0h0l-.08,0,0,0h-.12l0,0h0l0,0v0l0,0h0l0-.08-.08,0,0-.08h0l-.24-.28-.24-.28-.28-.24h0l-.32-.24-.4-.2-.44-.2h0l-.52-.12-.64-.08-.67,0h0l-.64,0-.6.12-.56.16h0l-.52.28-.48.28-.44.4h0l-.39.4-.32.48-.28.51h0l-.2.56-.12.6,0,.6h0v.76l0,.4h0l0,.35.08.4.08.4h0l.16.36.2.4.2.36h0l.28.36.27.32.36.28h0l.36.28.44.24.44.16h0l.52.16.56.07.6,0h.47l.48-.08.4-.07h0l.36-.08.32-.16.28-.12h0l.28-.16.2-.12.2-.16h0l.12-.12.12-.12.08-.08h0l.08-.12,0-.08.08,0h0l0,0,0,0,0,0H370l.12.08v1.55h0v.12l0,.16v.2h0l0,.2,0,.2,0,.2h0l-.08.24-.12.2-.16.2h0l-.2.2-.2.2-.28.16h-.08l-.08.08-.2,0h0l-.2.08-.28.08-.28.08h0l-.36.08-.4,0h-.91l-.4,0-.36-.08h0l-.28-.08-.24-.08-.2-.12h0l-.16-.12-.16-.12-.12-.12h-1v1.83h0l.48.12.48,0,.44.08h0l.48,0,.4,0h.68l.24,0h.19l.56,0h.52l.44-.08h0l.4,0,.36-.08.32-.08h0l.28,0,.2-.08.16,0h0l.43-.16.4-.16.32-.2h0l.28-.2.24-.24.2-.2h0l.16-.2.16-.16.08-.16h0l.08-.12,0-.08v0h0l0-.08,0-.12,0-.12h0l0-.12v-.16l0-.16h0l0-.2,0-.16,0-.2h0v-.16l0-.16v-.16h0v-9.57h-2v1.6Zm-3.67,6.5h-.4l-.39-.08-.32-.12h0l-.32-.12-.24-.16-.24-.2h0l-.2-.2-.16-.2-.16-.24h0l-.08-.24-.12-.24-.08-.2h0l0-.24,0-.23,0-.2h0v-.32l0-.12h0v-.4l0-.24h0v-.24l0-.28,0-.28h0l.08-.28.08-.28.08-.28h0l.16-.28.16-.24.2-.23h0l.24-.24.24-.2.32-.16h0l.36-.12.39,0,.48,0h0l.44,0,.4,0,.4.12h0l.4.16.36.2.32.28h0l.28.31.24.36.2.44h0l.12.44.11.56v.6h0v.52l-.11.51-.12.44h0l-.2.36-.2.32-.24.28h0l-.28.24-.28.2-.28.16h0l-.32.12-.28.12-.28,0h0l-.28,0-.24,0Zm9.54,2.55h2.47v-7.18h0v0l.08-.08h0l.08-.08.08-.12.16-.16h0l.2-.2.2-.2L380,751h0l0,0,.08-.08.12-.08h0l.16-.11.2-.16.2-.12h0l.24-.12.24-.12.27-.12h0l.28-.08.32-.08h.32l.32,0,.28,0,.24.08h0l.2.16.12.12.12.16h0l.08.16,0,.15,0,.16h0v.32h0v8.06h2.43v-8.1h0v-.48l0-.39-.08-.32h0l-.12-.28-.12-.24-.16-.2h0l-.16-.16-.16-.12-.19-.08h0l-.28-.16-.32-.08-.32-.08h0l-.32-.08h-.32l-.32,0h0l-.72,0-.64.12-.63.2h0l-.56.28-.48.36-.48.36h0l-.56.56h0l-.08.08-.08,0-.08.08h0l-.08,0-.08,0h-.16l-.08,0h0v-.08l0,0v0h0v-2.08l-2.27.68v10.21ZM230.65,748.43l-.08-.28,0-.28-.12-.28h0l-.11-.36-.2-.32-.2-.35h0l-.28-.36-.36-.36-.44-.32h0l-.4-.32-.48-.24-.48-.2h0l-.48-.16-.48-.12-.51-.08h0l-.48-.08-.48,0h-.44l-.92,0-.84.12-.75.16h0l-.68.28-.6.28-.56.36h0l-.48.44-.4.44-.4.47h0l-.27.52-.28.56-.2.56h0l-.2.6-.12.6-.12.6h0l0,.59,0,.56v.6h0l0,1.12.12,1,.2.91h0l.28.8.32.72.39.64h0l.4.52.48.43.48.4h0l.48.32.52.28.48.2h0l.48.16.47.08.44.08h0l.4.08h1.48l.32,0,.36,0,.4-.08h0l.43-.08.44-.12.44-.16h0l.44-.2.44-.24.44-.32h0l.4-.28.32-.35.32-.36h0l.24-.36.19-.4.16-.4h0l.12-.4.12-.4,0-.4h0l-2.75-.36h0l0,.2,0,.2,0,.2h0l0,.24-.08.24-.08.24h0l-.12.24-.12.24-.16.24h0l-.08.08-.12.12-.12.12h0l-.16.12-.16.12-.2.12h0l-.23.12-.28.12-.28.08h0l-.32.08-.36,0-.4,0h0l-.64,0-.56-.12-.52-.2h0l-.43-.28-.4-.32-.36-.4h0l-.28-.44-.24-.48-.2-.52h0l-.2-.56-.12-.59-.08-.6h0l-.08-.64,0-.64v-.64h0v-.32h0l0-.2v-.2l0-.23h0l0-.28,0-.28,0-.28h0l.08-.32.08-.28.08-.32h0l.12-.32.12-.28.16-.28h0l.12-.2.12-.2.16-.24h0l.2-.2.24-.24.24-.19h0l.27-.16.32-.16.32-.16h0l.4-.12.44,0,.48,0h0l.52,0,.48.08.44.12h0l.4.16.31.2.28.23h0l.28.28.2.28.16.32h0l.16.32.08.36.08.36h0l2.67-.36Z" transform="translate(-145.68 -630.94)"/><path class="cls-3" d="M291.29,775.68l.64.72.8.36.88.08h0l-.32.35-.32.52-.36.68-.32.76L292,780l-.24,1-.16,1-.12,1.08v1.08l.08,1.11.2,1.12.32,1.08.52,1,.64,1,.84.88,1,.8,1.24.68h0l1.8.51,1.51.2,1.28,0,1-.31.63-.48.32-.6h0l1-.16,1-.28,1-.44.87-.56.84-.68.68-.79.6-.88.44-1,.24-1,.08-1.07-.2-1.12-.4-1.16h0l-.56-1-.72-.79-.84-.68-.91-.56-1-.4-1-.2-1.08-.08-1,.08-1,.24-.92.4-.84.6h0l-.87.84-.52.91-.24.88v.88l.28.8.44.72.55.55.72.4.8.2.84,0,.84-.32h0l.87-1.07,0-1.12-.95-.84h0l-1.08,0L300,783l-.24.84.24.84.8.55h0l-.76.08-.76-.24-.68-.51-.51-.68-.28-.88,0-1,.48-1,1-1.07h0l.84-.52.84-.36.88-.24.83-.08h.88l.84.16.8.24.76.36.67.44.64.52.56.59.48.64.36.72.24.76.12.8v.84l-.16.87-.28.88-.48.88-.68.84h0l-.68.67-.76.56-.83.48-.84.36-.88.24-.92.16-.91.08h-.92l-.92-.08-.88-.2-.91-.24-.84-.36-.8-.4-.76-.52-.68-.55-.63-.6-.56-.72-.48-.76-.36-.8-.28-.87-.12-1,0-1,.12-1h0v-.08h0l0,.08h0l.28,1.52.44,1.28.56,1.11.67.92.76.76.84.6.92.48.92.31,1,.2,1,.12h.92l.88-.08h0l1.27-.35,1.08-.6.88-.76.68-.88.43-1,.24-1,0-1-.28-.84-.51-.76h0l-.36-.24-.44-.24h-.28v.16l.16.36.16.4h0l.12,1.32-.44,1.31-.92,1.2h0l-.76.64-.87.52-1,.32-1.12.12-1.24-.16-1.27-.44-1.32-.8h0l-1-1.08-.71-1.11-.48-1.12-.24-1.12,0-1.07.16-1,.28-1,.48-.88.55-.75.68-.64.76-.48.8-.36h0l.8-.16.79,0,.8.2h0l.4.16.44.2.4.28h0l.32.28.12,0v-.36h0l-.44-1-.76-.6-.64-.28h0l1.16-.08,1.16.08,1.15.2,1.12.32,1.08.44,1,.52,1,.64,1,.68.88.71.83.8.76.84.64.88.6.91.48.88.36.88.24.88.16.87v.8l-.16.8h0l-.16.32-.12.28v.12h.16l.32-.08.48-.16h0l1-.64.64-.92.28-1h0l1,.75,1.07.68,1.12.64,1.16.52,1.16.48,1.15.36,1.2.32,1.16.24,1.15.12,1.12,0h1.12l1.07-.12,1-.2,1-.28.88-.36.83-.44.8-.56.68-.6h0l.64,0,.76,0,.87,0,1,0,1,0,1.08-.16,1.15-.2,1.2-.28,1.2-.36,1.19-.51,1.24-.6,1.16-.72,1.15-.88,1.12-1,1-1.19h0l.12-.32-.08-.12-.28.2h0l-.56.6-.68.59-.76.56-.83.56-.92.52-1,.48-1.08.4-1.23.36-1.28.28-1.36.2-1.47.12H337l-1.63-.08h0l.56-1.24.27-1.24.08-1.15-.08-1.12-.27-1-.44-1-.56-.87-.68-.76-.76-.68-.84-.6-.91-.44-.92-.32-.92-.2h0l-1.63,0-1.28.36-1,.64-.84.8-.71.84-.64.83h0l-.4.48-.44.48-.52.32h0l-.36.12h-.52l-.67-.12h0l-.2-.08-.16-.08-.2,0h0v.08l.16.28.2.32h0l.87.76,1.24.2,1.12-.84h0l.6,1.2.95,1,1.2.52,1.24,0,1.11-.56h0l.52-.83-.08-1-.91-.76h0l-1.44.08-.8.84,0,1.12h0l-.72-.24-.56-.4-.31-.52-.16-.64v-.72l.16-.76.31-.75.48-.72.6-.64.76-.56.84-.4.95-.24h1.08l1.16.2h0l1.44.76,1.15.84.84.92.6.95.4,1,.2,1v1l-.12.91-.2.84-.32.72-.36.6-.36.44h0l-1.2-.2-1.15-.24-1.16-.24-1.16-.28-1.11-.32-1.16-.32-1.12-.36-1.12-.4-1.11-.4-1.08-.44-1.08-.43-1.07-.48-1.08-.52-1.08-.48-1-.52-1-.56-1-.56-1-.55-1-.56h0l-1-.48-1-.44-1.08-.48-1.07-.44-1.12-.4-1.16-.4-1.15-.32-1.16-.23-1.16-.2-1.16-.08L301,773l-1.12.16-1.16.28-1.11.43-1.08.6h0l-1.12.36-1.27.44-1.4.2-1.48-.4h0l-.16,0,0,.28.12.32Zm10-1.88,1.23.08,1.24.16,1.2.28,1.15.32,1.16.44,1.08.52,1.08.56,1.07.6,1,.63,1,.68,1,.72,1,.68h0l2,1.28,1.75,1.07,1.64.84,1.43.64,1.32.48,1.2.32,1,.24,1,.12.8,0h.68l.56-.08.48,0h0l1.35.51,1.52.44,1.51.32h0l-.55.36-.6.32-.68.24-.72.2-.8.16-.83.08-.88,0-.92-.08-1-.12-1-.24-1.12-.28-1.12-.4-1.2-.52-1.19-.6-1.28-.71-1.28-.84-1.35-1-1.36-1.12L313.36,780h0l-1-.76-1-.76-1-.72-1.07-.71-1.08-.64-1.08-.6-1.16-.56-1.11-.48-1.2-.4-1.2-.32-1.19-.2h0l0,0Z" transform="translate(-145.68 -630.94)"/><path class="cls-3" d="M249.36,692.62l1-.8,1-.8,1-.8,1-.75,1.08-.8,1.12-.76,1.11-.8h0l1.16-.72,1.16-.75,1.16-.72,1.15-.76,1.16-.72,1.16-.68,1.19-.71h0l1.2-.72,1.16-.72,1.19-.68,1.16-.68,1.16-.67,1.19-.68,1.16-.68h0l1.36-.76,1.31-.72L277,675l1.24-.76,1.23-.72,1.16-.72h0l1.4-.88,1.31-.79,1.28-.84,1.2-.76,1.12-.76h0l1.31-1,1.16-.91,1-.92.83-.88h0l.72-.84.56-1,.44-1h0l.36-1.08.28-1,.16-.91h0l.08-.84v-.72l-.12-.6h0l-.16-.4-.24-.16-.36.12h0l-1.12.68-1.11.72-1.08.72-1.12.72-1.08.71-1.07.76-1.08.76-1.08.76-1,.8-1.07.75h0l-1.08.8-1,.8-1.07.76-1,.76-1.08.75-1.08.76-1,.76-1.08.72-1.08.76-1.07.71h0l-1.12.76-1.16.76L268,674l-1.24.84-1.24.83h0l-1.28.84-1.27.88-1.24.88-1.28.87-1.27.88h0l-1.28.88-1.27.88-1.24.87-1.24.88-1.23.92h0l-1.2.88-1.2.88-1.12.87-1.11.84-1,.84h0l.36-1.32.44-1.35.48-1.36.52-1.36h0l.55-1.35.6-1.32.64-1.28.68-1.23h0l1-1.64.91-1.55,1-1.48h0l1-1.44,1-1.27.95-1.24h0l.12-.28,0-.32-.28-.4h0l-.36-.32-.47-.32-.6-.2h0l-.68-.16-.72,0-.8,0h0l-.79.2-.76.36-.76.64h0l-.8.92-.8,1-.75,1-.76,1.08-.72,1.16-.64,1.23-.64,1.24h0l-.56,1.16-.51,1.2-.52,1.15-.48,1.2-.48,1.2-.48,1.23-.44,1.24-.44,1.24h0l-.4,1.23-.39,1.24-.4,1.2-.36,1.23-.36,1.24-.36,1.2-.32,1.23-.32,1.2h0l-.4,1.56-.4,1.47-.36,1.4-.35,1.35-.32,1.24-.32,1.2h0l0,.24.16.16.28.08h0l.39,0,.44-.08.48-.12h0l.52-.24.6-.28.6-.28h0l.56-.36.48-.4.39-.4h0l.28-.32.28-.44.32-.55h0l.28-.6.28-.64.28-.72h0l.28-.72.28-.71.24-.68h0l.2-.72.2-.68.2-.56h0l.51.32.6.24.68.24h0l.68.08.6,0,.52-.08h0l1.39-.48,1.52-.4,1.59-.32,1.68-.24h0l1.44-.2,1.43-.12,1.48-.08,1.47-.07h4.15l1.36,0,1.32,0,1.35.08,1.36.12h0l1.4.12,1.35.12,1.36.12,1.35.16,1.36.16,1.36.16h0l1.31.2,1.36.2,1.28.2,1.31.24,1.28.24,1.28.24h0l1.43.28,1.44.32,1.4.32,1.35.28,1.32.27h0l1,.24.79.12.6,0h.48l.32,0,.2-.12h0l.08-.08,0-.16-.12-.19h0l-.24-.16-.28-.2-.32-.12h0l-1.08-.36-1.27-.36-1.44-.4-1.71-.44h0l-1.16-.28-1.24-.32-1.27-.28-1.32-.28-1.4-.28-1.39-.27h0l-1.28-.24-1.28-.28-1.27-.2-1.32-.24-1.36-.24-1.31-.2-1.4-.24h0l-1.32-.2-1.35-.2-1.32-.16-1.31-.12-1.32-.16-1.32-.12-1.27-.08h0l-1.48-.08-1.44,0-1.43,0-1.36,0-1.32,0-1.31.08h0l-1.84.2-1.67.28-1.48.4-1.28.56Zm75-18.15.28-.32.43-.48.56-.68h0l.64-.8.64-.8.6-.83h0l.6-.88.52-.84.47-.8h0l.36-.71.2-.52,0-.4h0l0-.24-.16-.28-.28-.28h0l-.32-.32-.35-.28-.48-.28h0l-.44-.2-.48-.16-.48-.16h0l-.48,0h-.4l-.36,0h0l-.32.28-.35.48-.36.76h0l-.4.92-.32,1-.32,1h0l-.28,1-.28,1-.24,1h0l-.2.84-.12.64,0,.4h0l.08.6.24.4.44.28h0l.48,0,.44-.12.48-.28Zm7.74,1.75.35-.6.48-.59.48-.52h0l.48-.56.24-.6v-.64h0l-.08-.32-.16-.32-.24-.32h0l-.32-.36-.36-.31-.36-.24h0l-.39-.24-.44-.2-.48-.16h0l-.4-.12h-.4l-.4.08h0l-.56.24-.52.4-.55.51h0l-.48.6-.36.64-.32.76h0l-.24.76-.12.76v.75h0l.12.76.24.68.44.6h0l.52.44.59.24.68.08h.76l.76,0,.68-.08h0l.67-.12.64-.12.6-.12h0l.48,0,.36.12.24.24h0v.4l-.16.51-.28.64h0l-.4.68-.4.72-.52.72h0l-.48.67-.51.6-.56.52h0l-.44.4-.4.16-.32,0h0l-.08-.2v-.24l.08-.28h0l.2-.36.24-.4.2-.35h0l.24-.44.28-.4.24-.4h0l.24-.36.2-.28.16-.2h0l.31-.52.08-.48-.08-.4h0l-.31-.15-.44.07-.68.36h0l-.48.32-.48.36-.48.4h0l-.44.44-.4.44-.39.44h0l-.36.48-.28.48-.24.43h0l-.16.44-.08.4v.36h0l.16.48.24.52.4.52h0l.48.52.55.43.64.36h0l.72.4.72.28.72.16h0l.79.08.76-.12.8-.24h0l.72-.36.76-.56.71-.67h0l.68-.8.64-.84.56-.84h0l.48-.92.44-.87.32-.88h0l.2-.88.08-.76v-.67h0l-.16-.6-.24-.52-.4-.44h0l-.52-.36-.6-.28-.72-.24h0l-.72-.16-.79-.12-.88,0h0l-.88.08-1,.16-.95.2ZM299,681.53l-1,1-1,.91-1,.84-1,.76-1,.72-1,.6h0l-2,1-1.63.6L288,688h0l1-1,.88-.91.8-.84h0l.63-.8.6-.8.52-.76h0l.44-.71.28-.64.08-.56h0l0-.52-.2-.48-.28-.48h0l-.36-.44-.4-.39-.52-.32h0l-.48-.32-.55-.24-.56-.2h0l-.56-.12-.48,0-.44,0h0l-.56.12-.6.28-.63.4h0l-.68.51-.68.56-.64.64h0l-.6.72-.52.76-.47.84h0l-.36.87-.24.84-.12.88h0l.08,1,.36,1,.63.92h0l.76.84.92.76,1,.67h0l1,.56,1,.44,1,.32h0l1,.2.83,0,.64-.08h0l.92-.36,1-.56.92-.71h0l.91-.84.88-.88.88-1h0l.52-.64.44-.63.47-.64h0v1.31l.08.36h0l.36.72.48.56.64.36h0l.68.28.68.12.64,0h0l.43-.16.56-.48.72-.72h0l.76-.84.76-.87.75-1h0l.72-.92.68-.92.64-.83h0l.44-.68.32-.44.08-.12h0v.12l-.08.28-.2.44h0l-.2.52-.2.55-.16.6h0l-.2.6-.2.6-.12.6h0l-.12.52v.39l0,.2h0l.2.52.36.48.48.4h0l.68.4.75.32.76.24h0l.88.16.88.08h.88l.83,0,.76-.2.72-.32h0l.48-.28.64-.56.71-.8h0l.72-.87.76-1,.8-1h0l.76-1,.71-1,.68-1h0l.56-.84.4-.64.28-.48h0l.12-.32.08-.31v-.28h0l0-.28-.12-.24-.12-.2h0l-.2-.12-.2,0h-.24l-.28.12-.32.24-.28.28h0l-.4.48-.55.63-.68.84h0l-.76.88-.8.92-.84.87h0l-.83.84-.8.76L315,685h0l-.64.52-.48.28-.32,0h0l-.15-.28v-.44l.19-.68h0l.32-.84.36-.88.36-.95h0l.36-1,.36-.92.36-.92h0l.24-.79.08-.64L316,677h0l-.16-.36-.28-.32-.36-.28h0l-.44-.2-.48-.24-.48-.16h0l-.51-.08-.48-.08-.52,0h0l-.4,0-.36,0-.24.08h0l-.28.28-.44.48-.64.76h0l-.75.92-.76.92-.8,1h0l-.8,1.08-.8,1-.71,1h0l-.64.8-.48.56-.32.32h0l.08-.24L304,684l.12-.4h0l.12-.44.12-.48.16-.47h0l.12-.52.08-.52.08-.52h0v-.48l0-.44-.08-.32h0l-.16-.36-.24-.35-.24-.32h0l-.4-.32-.36-.32-.36-.24h0l-.4-.16-.4-.12-.43-.08h0l-.36.08-.32.16-.28.24h0l-.48.64-.4.75-.36.84h0l-.2.6-.16.56-.16.56Zm-8.06-.68h-.27l-.4.16-.56.36h0l-.64.44-.6.56-.6.67h0l-.56.64-.43.72-.36.76h0l-.28.68,0,.55.2.48h0l.32-.24.43-.35.52-.56h0l.56-.64.56-.64.52-.68h0l.52-.68.44-.63.36-.56h0l.27-.48.12-.36-.08-.2Z" transform="translate(-145.68 -630.94)"/><path class="cls-5" d="M250.48,692.06l1-.8,1-.8,1-.79,1-.76,1.08-.8,1.11-.76,1.12-.8h0l1.16-.71,1.16-.76,1.15-.72,1.16-.76,1.16-.72,1.15-.67,1.2-.72h0l1.2-.72,1.15-.68,1.2-.72,1.16-.67,1.16-.68,1.19-.68,1.16-.68h0l1.36-.76,1.31-.72,1.28-.75,1.24-.76,1.19-.72,1.2-.72h0l1.4-.88,1.31-.79,1.28-.8,1.2-.8,1.11-.76h0l1.32-1,1.16-.92,1-.92.84-.88h0l.72-.84.56-1,.44-1h0l.36-1.08.27-.95.16-1h0l.08-.84,0-.72-.08-.6h0l-.16-.4-.27-.15-.32.11h0l-1.12.68-1.12.72-1.07.72-1.12.72-1.08.72-1.08.75-1.07.76-1.08.76-1.08.8-1,.8h0l-1.07.75-1,.8-1.08.76-1,.76-1.08.76-1.08.75-1,.76-1.07.76-1.08.72-1.08.72h0l-1.11.75-1.16.76-1.16.8-1.23.84-1.24.83h0l-1.28.88-1.27.84-1.28.88-1.24.88-1.27.87h0l-1.28.88-1.28.88-1.23.88-1.24.87-1.24.92h0l-1.19.88-1.2.88-1.16.87-1.08.84-1,.84h0l.36-1.32.43-1.35.48-1.36.52-1.36h0l.56-1.35.6-1.28.64-1.32.68-1.23h0l.95-1.64.92-1.55,1-1.48h0l1-1.44,1-1.27,1-1.24h0l.12-.28,0-.32-.28-.4h0l-.36-.32-.48-.31-.6-.2h0l-.67-.16-.72,0-.8,0h0l-.8.2-.76.35-.75.64h0l-.8.92-.8,1-.76,1-.76,1.07-.71,1.16-.64,1.24-.64,1.23h0l-.56,1.16-.52,1.2-.52,1.15-.47,1.2-.48,1.2-.48,1.23-.44,1.24-.44,1.24h0l-.4,1.23-.4,1.24-.4,1.2-.36,1.23-.35,1.24-.36,1.2-.32,1.23-.32,1.2h0l-.4,1.56-.4,1.47-.36,1.4-.36,1.36-.32,1.23-.32,1.2h0l0,.24.16.16.28.08h0l.4,0,.44-.08.48-.12h0l.52-.24.6-.28.59-.28h0l.56-.36.48-.36.4-.44h0l.28-.31.28-.44.32-.56h0l.28-.6.28-.64.28-.72h0l.28-.72.27-.67.24-.72h0l.2-.72.2-.68.2-.56h0l.52.32.6.24.68.24h0l.68.08.59,0,.52-.08h0l1.4-.48,1.52-.4,1.59-.32,1.68-.23h0l1.43-.16,1.44-.16,1.48-.08,1.47-.08H266l1.36,0,1.31,0,1.36.08,1.36.12h0l1.39.12,1.36.12,1.36.11,1.35.16,1.36.16,1.35.16h0l1.32.2,1.32.2,1.31.2,1.32.24,1.28.24,1.27.24h0l1.44.28,1.44.32,1.39.32L293,697l1.32.32h0l1,.2.8.12.6,0h.48l.32,0,.2-.08h0l.08-.12,0-.16-.12-.16h0l-.24-.2-.28-.2-.32-.12h0l-1.08-.36-1.27-.36-1.44-.4-1.72-.44h0l-1.15-.28-1.24-.28-1.28-.32-1.31-.27-1.4-.28-1.4-.28h0l-1.27-.24-1.28-.24-1.28-.24-1.31-.24L277,692.1l-1.31-.2-1.4-.24h0l-1.32-.2-1.35-.16-1.32-.2L269,691l-1.27-.16-1.32-.12-1.28-.08h0l-1.47-.08-1.44,0-1.44,0-1.35,0-1.32,0-1.32.08h0l-1.83.2-1.68.28-1.47.44-1.28.52Zm75-18.15.28-.32.44-.48.56-.68h0l.64-.8.64-.79.6-.84h0l.59-.88.52-.84.48-.8h0l.36-.71.2-.52,0-.4h0l0-.24-.16-.24-.28-.32h0l-.32-.32-.36-.28-.48-.28h0l-.44-.16-.47-.2-.52-.12h0l-.44-.07h-.4l-.36.07h0l-.36.24-.32.48-.36.76h0l-.4.92-.31,1-.32,1h0l-.32,1-.24,1-.24,1h0l-.2.83-.12.64,0,.4h0l.08.6.24.4.44.28h0l.48,0,.43-.12.48-.28Zm7.74,1.75.36-.6.48-.59.48-.52h0l.48-.56.24-.6v-.64h0l-.08-.32-.16-.32-.24-.31h0l-.32-.36-.36-.28-.36-.28h0l-.4-.24-.44-.2-.48-.16h0l-.39-.12h-.4l-.4.08h0l-.56.24-.52.4-.56.52h0l-.48.59-.36.64-.31.76h0l-.24.76-.12.76,0,.75h0l.12.76.28.68.43.6h0l.52.44.6.24.68.08h.76l.76,0,.67-.08h0l.68-.12.64-.12.6-.12h0l.48,0,.36.12.24.24h0v.4l-.16.52-.28.63h0l-.4.68-.44.72-.48.72h0l-.48.68-.52.59-.56.52h0l-.43.4-.4.16-.32,0h0l-.08-.16v-.28l.08-.28h0l.2-.36.24-.39.2-.36h0l.24-.44.27-.4.24-.4h0l.24-.36.2-.28.16-.2h0l.32-.52.08-.47-.08-.4h0l-.32-.16-.44.08-.67.36h0l-.48.31-.48.36-.48.4h0l-.44.44-.4.44-.4.44h0l-.36.48-.28.48-.24.44h0l-.15.43-.08.4v.36h0l.16.48.23.52.4.52h0l.48.52.56.44.64.35h0l.72.4.71.28.72.16h0l.8.08.76-.12.8-.24h0l.72-.36.75-.55.72-.68h0l.68-.8.64-.84.56-.84h0l.47-.91.44-.88.32-.88h0l.2-.88.08-.75V678h0l-.16-.6-.24-.52-.4-.44h0l-.51-.36-.6-.28-.72-.24h0l-.72-.16-.8-.12-.87,0h0l-.92.08-.92.16-1,.2ZM300.11,681l-1,1-1,.91-1,.84-1,.76-1,.72-1,.64h0l-2,1-1.63.6-1.28.08h0l1-1,.87-.91.8-.84h0l.64-.8.6-.76.52-.79h0l.44-.72.28-.64.08-.56h0l0-.52-.2-.48-.28-.48h0l-.36-.43-.4-.4-.52-.32h0l-.48-.32-.56-.24-.56-.2h0l-.55-.12-.48,0-.48,0h0l-.52.12-.6.28-.64.4h0l-.67.52-.68.55-.64.64h0l-.6.72-.52.76-.48.84h0l-.4.87-.24.84-.08.88h0l.08,1,.36,1,.64.92h0l.76.84.92.76,1,.68h0l1,.55,1,.44,1,.32h0l.95.2.84,0,.64-.08h0l.92-.36,1-.56.91-.71h0l.92-.84.88-.88.88-1h0l.47-.63.48-.64.48-.64h0v1.32l.08.35h0l.36.72.48.56.64.36h0l.68.28.67.12.64,0h0l.44-.16.56-.48.72-.72h0l.76-.8.75-.91.76-1h0l.72-.92.68-.92.6-.83h0l.48-.68.31-.44.08-.12h0v.12l-.12.28-.15.44h0l-.2.52-.2.56-.2.59h0l-.16.6-.2.6-.16.6h0l-.08.52,0,.4,0,.24h0l.2.47.36.48.52.4h0l.67.4.76.32.76.24h0l.88.16.88.08h.87l.84,0,.76-.2.72-.32h0l.48-.28.63-.56.72-.8h0l.72-.87.76-1,.8-1h0l.75-1,.72-1,.68-1h0l.56-.84.4-.64.28-.47h0l.12-.32.08-.32v-.28h0l0-.28-.12-.24-.12-.2h0l-.2-.12-.2,0h-.24l-.28.12-.32.24-.28.28h0l-.4.48-.56.64-.67.83h0l-.76.88-.8.92-.84.88h0l-.84.83-.79.76-.76.68h0l-.64.52-.48.28-.32,0h0l-.16-.28v-.44l.2-.68h0l.32-.8.32-.91.4-1h0l.36-1,.36-.92.36-.91h0l.24-.8.08-.64-.08-.48h0l-.16-.36-.28-.28-.36-.32h0l-.44-.2-.48-.23-.48-.12h0l-.52-.12-.52-.08H313l-.36,0-.24.12h0l-.28.23-.44.48-.64.76h0l-.76.92-.75.92-.84,1h0l-.76,1.08-.8,1-.72,1h0l-.63.79-.48.56L305,684h0l.08-.24.08-.32.12-.4h0l.12-.43.12-.44.16-.52h0l.12-.52.08-.52.07-.52h0v-.48l0-.44-.08-.31h0l-.16-.36-.24-.32-.24-.36h0l-.4-.32-.36-.32-.36-.24h0l-.4-.16-.44-.12-.4-.08h0l-.36.08-.32.16-.27.24h0l-.48.64-.4.76-.36.83h0l-.2.6-.16.56-.16.56Zm-8-.68h-.28l-.4.16-.56.36h0l-.63.44-.6.56-.64.68h0l-.52.63-.44.72-.36.76h0l-.28.68,0,.56.2.48h0l.32-.2.44-.4.52-.56h0l.52-.64.56-.64.56-.68h0l.51-.67.44-.64.36-.56h0l.28-.48.12-.36-.08-.2Z" transform="translate(-145.68 -630.94)"/></g></svg>